<?xml version="1.0" encoding="UTF-8"?><svg id="Layer_2" xmlns="http://www.w3.org/2000/svg" xmlns:xlink="http://www.w3.org/1999/xlink" viewBox="0 0 96 517"><defs><style>.cls-1{clip-path:url(#clippath-2);}.cls-2{fill:#383f5e;stroke:#9997a6;stroke-miterlimit:10;}.cls-3{clip-path:url(#clippath-6);}.cls-4{clip-path:url(#clippath-7);}.cls-5{clip-path:url(#clippath-1);}.cls-6{clip-path:url(#clippath-4);}.cls-7{clip-path:url(#clippath);}.cls-8{fill:none;}.cls-9{clip-path:url(#clippath-3);}.cls-10{fill:#ffc3b3;}.cls-11{clip-path:url(#clippath-5);}</style><clipPath id="clippath"><rect class="cls-8" y="325" width="96" height="64"/></clipPath><clipPath id="clippath-1"><rect class="cls-8" y="261" width="96" height="64"/></clipPath><clipPath id="clippath-2"><rect class="cls-8" width="96" height="64"/></clipPath><clipPath id="clippath-3"><rect class="cls-8" y="64" width="96" height="64"/></clipPath><clipPath id="clippath-4"><rect class="cls-8" y="128" width="96" height="64"/></clipPath><clipPath id="clippath-5"><rect class="cls-8" y="192" width="96" height="64"/></clipPath><clipPath id="clippath-6"><rect class="cls-8" y="389" width="96" height="64"/></clipPath><clipPath id="clippath-7"><rect class="cls-8" y="453" width="96" height="64"/></clipPath></defs><g id="Layer_1-2"><g class="cls-7"><rect class="cls-2" x=".5" y="339.5" width="95" height="38"/><g><path class="cls-10" d="m18.22,355.07l-1.49,1.66c-1.11-1.8-2.58-2.7-4.41-2.7-1.39,0-2.56.48-3.51,1.43s-1.43,2.13-1.43,3.51c0,1.8.76,3.18,2.28,4.16.3-1.63,1.24-2.74,2.81-3.34.49-.19.98-.28,1.49-.28.99,0,1.95.35,2.87,1.04.67.5,1.01,1.13,1.01,1.88,0,1.16-.77,2.12-2.3,2.87-1.01.51-2.08.76-3.2.76-2.12,0-3.82-.65-5.11-1.94-1.29-1.31-1.94-3.02-1.94-5.14s.65-3.79,1.94-5.08c1.31-1.31,3.02-1.97,5.11-1.97,2.4,0,4.36,1.05,5.9,3.15Zm-2.39,7.36c-.51-.56-1.12-.84-1.85-.84-.62,0-1.16.23-1.63.7-.47.45-.72.97-.76,1.57.09.02.19.03.28.03h.28c1.61,0,2.84-.49,3.68-1.46Z"/><path class="cls-10" d="m46.34,358.92c0,1.29-.33,2.49-.98,3.58-.66,1.1-1.55,1.96-2.7,2.6-1.01.58-2.04.85-3.09.81l-.48-2.08c2,.09,3.5-.72,4.49-2.44.43-.77.65-1.6.65-2.5,0-1.95-.82-3.38-2.47-4.3-.77-.43-1.59-.65-2.47-.65s-1.82.27-2.7.82c-.86.52-1.46,1.21-1.8,2.05-.09.26-.18.57-.27.93-.08.36-.15.76-.18,1.21v.06c0,2.15-.65,3.86-1.94,5.11-1.31,1.27-3.02,1.91-5.14,1.91s-3.8-.65-5.11-1.94c-1.29-1.31-1.94-3.01-1.94-5.11s.65-3.85,1.94-5.14c1.33-1.29,3.05-1.93,5.17-1.91,2.57.02,4.54,1.11,5.93,3.29,1.4-2.25,3.42-3.37,6.04-3.37.96-.02,1.86.16,2.73.53.86.38,1.62.89,2.28,1.56.66.67,1.17,1.43,1.54,2.29.37.86.54,1.76.51,2.7Zm-14.1.14c.02-1.42-.45-2.61-1.4-3.57-.92-.94-2.1-1.42-3.54-1.46-1.42-.02-2.61.45-3.57,1.4s-1.4,2.12-1.4,3.54.48,2.56,1.43,3.51c.96.96,2.12,1.43,3.51,1.43s2.57-.46,3.51-1.38c.94-.92,1.42-2.08,1.46-3.48Z"/><path class="cls-10" d="m58.39,358.92c0,1.27-.31,2.44-.93,3.51-1.33,2.3-3.42,3.5-6.27,3.6l-.34-2.13c.09.02.2.03.31.03h.31c1.78,0,3.17-.84,4.16-2.53.43-.77.65-1.6.65-2.5,0-1.95-.82-3.38-2.47-4.3-.77-.43-1.59-.65-2.47-.65-1.91,0-3.34.83-4.3,2.47-.37.67-.59,1.21-.65,1.6l-2.02-.31c.02-.84.41-1.79,1.18-2.84.69-.92,1.45-1.62,2.28-2.11,1.09-.62,2.26-.93,3.51-.93.96-.02,1.86.16,2.72.53s1.62.89,2.28,1.56c.66.67,1.17,1.43,1.55,2.29.37.86.54,1.76.5,2.7Z"/><path class="cls-10" d="m73.81,362.68c-.32.49-.67.92-1.04,1.29-1.37,1.37-3.03,2.05-5,2.05-2.12,0-3.83-.65-5.14-1.94-1.29-1.29-1.94-3-1.94-5.11s.65-3.85,1.94-5.14c1.33-1.29,3.05-1.93,5.17-1.91,2.57.04,4.53,1.09,5.9,3.17l-1.49,1.63c-.23-.45-.53-.86-.9-1.24-.94-.94-2.11-1.42-3.51-1.46-1.42-.02-2.61.45-3.57,1.4s-1.4,2.12-1.4,3.54.48,2.56,1.43,3.51c.96.96,2.12,1.43,3.51,1.43s2.56-.48,3.51-1.43c.26-.26.58-.7.96-1.32l1.57,1.52Z"/><path class="cls-10" d="m72.24,348.02l-1.91,1.35c.02-.64-.22-1.22-.73-1.74-.54-.51-1.13-.76-1.77-.76-.69,0-1.29.24-1.78.73-.5.49-.74,1.08-.74,1.77s.24,1.31.73,1.8c.49.49,1.09.73,1.8.73h.31c.11,0,.22,0,.31.03l-.03,2.02c-.09.02-.19.03-.28.04-.09,0-.2.01-.31.01-1.29,0-2.39-.45-3.29-1.35-.9-.9-1.35-2-1.35-3.29s.45-2.38,1.35-3.26c.9-.9,2-1.35,3.29-1.35,1.01,0,1.94.31,2.78.93.82.58,1.37,1.36,1.63,2.33Z"/><path class="cls-10" d="m89.94,362.68c-.32.49-.67.92-1.04,1.29-1.37,1.37-3.03,2.05-5,2.05-2.12,0-3.83-.65-5.14-1.94-1.29-1.29-1.94-3-1.94-5.11s.65-3.85,1.94-5.14c1.33-1.29,3.05-1.93,5.17-1.91,2.57.04,4.53,1.09,5.9,3.17l-1.49,1.63c-.23-.45-.53-.86-.9-1.24-.94-.94-2.11-1.42-3.51-1.46-1.42-.02-2.61.45-3.57,1.4s-1.4,2.12-1.4,3.54.48,2.56,1.43,3.51c.96.96,2.12,1.43,3.51,1.43s2.56-.48,3.51-1.43c.26-.26.58-.7.96-1.32l1.57,1.52Z"/><path class="cls-10" d="m83,373.08h-2.11v-7.39h2.11v7.39Zm5.31,0h-.62c-1.82,0-2.73-.91-2.73-2.72v-4.66h2.11v4.66c0,.24.03.43.08.56.11.04.29.06.53.06h.62v2.11Z"/></g></g><g class="cls-5"><rect class="cls-2" x=".5" y="275.5" width="95" height="38"/><g><path class="cls-10" d="m15.22,293.6l-1.14,1.27c-.85-1.38-1.98-2.07-3.39-2.07-1.07,0-1.97.37-2.7,1.1s-1.1,1.63-1.1,2.7c0,1.38.58,2.45,1.75,3.2.23-1.25.95-2.11,2.16-2.57.37-.14.76-.22,1.14-.22.76,0,1.5.27,2.2.8.52.39.78.87.78,1.45,0,.89-.59,1.63-1.77,2.2-.78.39-1.6.58-2.46.58-1.63,0-2.94-.5-3.93-1.49-.99-1.01-1.49-2.33-1.49-3.95s.5-2.92,1.49-3.91c1.01-1.01,2.32-1.51,3.93-1.51,1.84,0,3.35.81,4.54,2.42Zm-1.84,5.66c-.39-.43-.86-.65-1.43-.65-.48,0-.89.18-1.25.54-.36.35-.55.75-.58,1.21.07.01.14.02.22.02h.22c1.24,0,2.18-.37,2.83-1.12Z"/><path class="cls-10" d="m36.84,296.56c0,.99-.25,1.91-.76,2.75-.5.84-1.2,1.51-2.07,2-.78.45-1.57.66-2.38.63l-.37-1.6c1.54.07,2.69-.55,3.46-1.88.33-.59.5-1.23.5-1.92,0-1.5-.63-2.6-1.9-3.3-.59-.33-1.22-.5-1.9-.5s-1.4.21-2.07.63c-.66.4-1.12.93-1.38,1.58-.07.2-.14.44-.21.71-.06.27-.11.58-.14.93v.04c0,1.66-.5,2.97-1.49,3.93-1.01.98-2.33,1.47-3.95,1.47s-2.92-.5-3.93-1.49c-.99-1.01-1.49-2.32-1.49-3.93s.5-2.96,1.49-3.95c1.02-.99,2.35-1.48,3.97-1.47,1.97.01,3.49.86,4.56,2.53,1.08-1.73,2.63-2.59,4.64-2.59.73-.01,1.43.12,2.1.41.66.29,1.25.69,1.75,1.2s.9,1.1,1.19,1.76c.29.66.42,1.35.39,2.07Zm-10.84.11c.01-1.09-.35-2.01-1.08-2.74-.71-.72-1.61-1.09-2.72-1.12-1.09-.01-2.01.35-2.74,1.08s-1.08,1.63-1.08,2.72.37,1.97,1.1,2.7c.73.73,1.63,1.1,2.7,1.1s1.98-.35,2.7-1.06c.72-.71,1.09-1.6,1.12-2.68Z"/><path class="cls-10" d="m46.1,296.56c0,.98-.24,1.88-.71,2.7-1.02,1.77-2.63,2.69-4.82,2.76l-.26-1.64c.07.01.15.02.24.02h.24c1.37,0,2.43-.65,3.2-1.94.33-.59.5-1.23.5-1.92,0-1.5-.63-2.6-1.9-3.3-.59-.33-1.22-.5-1.9-.5-1.47,0-2.57.63-3.3,1.9-.29.52-.45.93-.5,1.23l-1.55-.24c.01-.65.32-1.38.91-2.18.53-.71,1.12-1.25,1.75-1.62.83-.48,1.73-.71,2.7-.71.73-.01,1.43.12,2.09.41.66.29,1.25.69,1.75,1.2s.9,1.1,1.19,1.76c.29.66.42,1.35.39,2.07Z"/><path class="cls-10" d="m57.96,299.46c-.24.38-.51.71-.8.99-1.05,1.05-2.33,1.58-3.84,1.58-1.63,0-2.94-.5-3.95-1.49-.99-.99-1.49-2.3-1.49-3.93s.5-2.96,1.49-3.95c1.02-.99,2.35-1.48,3.97-1.47,1.97.03,3.48.84,4.54,2.44l-1.14,1.25c-.17-.35-.4-.66-.69-.95-.72-.72-1.62-1.09-2.7-1.12-1.09-.01-2.01.35-2.74,1.08-.72.72-1.08,1.63-1.08,2.72s.37,1.97,1.1,2.7c.73.73,1.63,1.1,2.7,1.1s1.96-.37,2.7-1.1c.2-.2.45-.54.73-1.02l1.21,1.17Z"/><path class="cls-10" d="m56.75,288.18l-1.47,1.04c.01-.49-.17-.94-.56-1.34-.42-.39-.87-.58-1.36-.58-.53,0-.99.19-1.37.56-.38.37-.57.83-.57,1.36s.19,1.01.56,1.38.83.56,1.38.56h.24c.09,0,.17,0,.24.02l-.02,1.56c-.07.01-.14.03-.22.03-.07,0-.15.01-.24.01-.99,0-1.83-.35-2.53-1.04s-1.04-1.53-1.04-2.53.35-1.83,1.04-2.5c.69-.69,1.53-1.04,2.53-1.04.78,0,1.49.24,2.14.71.63.45,1.05,1.04,1.25,1.79Z"/><path class="cls-10" d="m83.51,304.51c0,.82-.29,1.52-.86,2.09-.59.59-1.29.89-2.09.89h-17.23c-.81,0-1.5-.29-2.09-.89-.58-.58-.86-1.27-.86-2.09v-15.77c0-.82.29-1.52.86-2.09.59-.59,1.29-.89,2.09-.89h12.18v1.62h-12.18c-.38,0-.69.13-.95.4-.26.27-.39.59-.39.96v15.77c0,.37.13.69.39.96s.58.4.95.4h17.23c.38,0,.69-.13.95-.4.26-.27.39-.59.39-.96v-4.23h1.62v4.23Z"/><path class="cls-10" d="m83.5,296.56c0,.99-.25,1.91-.76,2.75-.5.84-1.19,1.51-2.07,2-.78.45-1.57.66-2.38.63l-.37-1.6c1.54.07,2.69-.55,3.46-1.88.33-.59.5-1.23.5-1.92,0-1.5-.63-2.6-1.9-3.3-.59-.33-1.22-.5-1.9-.5s-1.4.21-2.07.63c-.66.4-1.12.93-1.38,1.58-.23.56-.35,1.14-.37,1.75-.1,2.36-1.25,4.03-3.43,5.01l-.93-1.47c.86-.23,1.54-.67,2.02-1.33.48-.65.72-1.42.72-2.3,0-1.08-.37-1.98-1.1-2.7-.73-.73-1.64-1.1-2.72-1.1s-1.97.37-2.7,1.1-1.1,1.63-1.1,2.7c0,.82.24,1.56.72,2.21s1.11,1.11,1.89,1.37l-.84,1.45c-2.26-1.05-3.39-2.73-3.39-5.03,0-1.61.5-2.92,1.49-3.91,1.01-1.01,2.32-1.51,3.93-1.51,2.03,0,3.57.85,4.62,2.55,1.04-1.74,2.58-2.61,4.64-2.61.73-.01,1.43.12,2.09.41.66.29,1.25.69,1.75,1.2s.9,1.1,1.19,1.76.42,1.35.39,2.07Z"/><path class="cls-10" d="m81.67,289.22c0,.98-.34,1.82-1.01,2.53-.69.69-1.53,1.04-2.53,1.04s-1.83-.35-2.53-1.04c-.69-.69-1.04-1.53-1.04-2.53s.35-1.83,1.04-2.5c.69-.69,1.53-1.04,2.53-1.04s1.81.35,2.51,1.04c.69.69,1.04,1.53,1.04,2.5Zm-1.62.26v-.26c0-.53-.19-.99-.56-1.36-.38-.37-.83-.56-1.36-.56s-.99.19-1.37.56c-.38.37-.57.83-.57,1.36,0,.12,0,.2.02.26.55-.55,1.19-.82,1.92-.82s1.38.27,1.92.82Zm-.65,1.21c-.26-.55-.68-.82-1.27-.82s-1.02.27-1.3.8c.38.33.81.5,1.3.5s.92-.16,1.27-.47Z"/><path class="cls-10" d="m88.24,293.52c0,.42-.15.77-.44,1.07s-.65.44-1.07.44-.78-.15-1.08-.44-.45-.65-.45-1.07.15-.77.45-1.07c.3-.29.66-.44,1.08-.44s.77.15,1.07.44c.29.3.44.65.44,1.07Zm0,6.48c0,.42-.15.77-.44,1.07s-.65.44-1.07.44-.78-.15-1.08-.44-.45-.65-.45-1.07.15-.77.45-1.07.66-.44,1.08-.44.77.15,1.07.44.44.65.44,1.07Zm-1.1-6.48c0-.29-.14-.43-.41-.43-.29,0-.43.14-.43.43s.14.43.43.43.41-.14.41-.43Zm0,6.48c0-.29-.14-.43-.41-.43-.29,0-.43.14-.43.43s.14.43.43.43.41-.14.41-.43Z"/></g></g><g class="cls-1"><rect class="cls-2" x=".5" y="14.5" width="95" height="38"/><g><path class="cls-10" d="m25.6,47.41h-.55c-1.72,0-2.58-.86-2.58-2.58v-10.54c0-1.37-.43-2.45-1.29-3.26-.88-.84-1.99-1.26-3.34-1.26-1.47,0-2.66.55-3.58,1.66-.72.88-1.08,1.88-1.08,3,0,.42.07.87.21,1.34.81-.65,1.67-.97,2.58-.97,1.05,0,1.94.31,2.67.93.73.62,1.21,1.46,1.46,2.51.05.25.08.46.08.63,0,.67-.25,1.2-.74,1.59s-1.08.59-1.76.59c-1.47,0-2.84-.53-4.1-1.58-1.58-1.32-2.37-3-2.37-5.05,0-1.59.52-3.01,1.55-4.26,1.31-1.58,3.01-2.37,5.07-2.37,1.58,0,2.99.52,4.23,1.55,1.52,1.26,2.3,2.91,2.34,4.94h.03v10.54c0,.23.03.4.08.53.07.05.25.08.53.08h.55v1.97Zm-7.34-8.41c-.02-.67-.25-1.21-.71-1.63-.46-.42-1.02-.61-1.68-.58-.63.02-1.13.25-1.5.68l.37.37c1.05.88,2.16,1.27,3.31,1.18.09,0,.16,0,.21-.03Z"/><path class="cls-10" d="m38.79,38.53c-.07,1.12-.67,1.87-1.79,2.24-.68.25-1.73.35-3.13.32v6.6h-1.97v-6.62c-.67-.02-1.24-.04-1.71-.07s-.86-.08-1.16-.14c-1.09-.25-1.88-.73-2.37-1.45-.28-.39-.42-1.02-.42-1.89s.34-1.62,1.03-2.23c.7-.61,1.5-.92,2.39-.92.42,0,.87.08,1.34.24,2.02.65,2.94,2.17,2.79,4.55.21.02.4.03.58.04.17,0,.33.01.47.01.88,0,1.46-.23,1.76-.68.02-.07.03-.13.04-.18,0-.05.01-.11.01-.16,0-.26-.1-.49-.29-.68-.26-.46-1.31-1.47-3.13-3.05-.47-.42-1.64-1.48-3.5-3.18-.33-.44-.5-.86-.5-1.26,0-1.42,1.13-2.12,3.39-2.1,2.37.04,3.55.81,3.55,2.34,0,.23-.04.46-.13.68h-1.95c.09-.14.13-.25.13-.34,0-.32-.18-.52-.53-.6-.09-.02-.21-.03-.37-.04-.16,0-.35-.01-.58-.01-.53,0-.95.05-1.26.16l4.05,3.68,2.05,1.97c.88.84,1.27,1.78,1.18,2.81Zm-6.91.55c.14-1.46-.32-2.32-1.39-2.6-.35-.09-.65-.13-.89-.13-.93,0-1.4.38-1.42,1.13-.02.75.45,1.24,1.39,1.47.25.07.56.11.96.13.39.02.85.02,1.35,0Z"/><path class="cls-10" d="m36.72,24.17l-1.79,1.26c.02-.6-.21-1.14-.68-1.63-.51-.47-1.06-.71-1.66-.71-.65,0-1.21.23-1.67.68-.46.46-.7,1.01-.7,1.66s.23,1.23.68,1.68,1.02.68,1.68.68h.29c.11,0,.2,0,.29.03l-.03,1.89c-.09.02-.18.03-.26.04-.09,0-.18.01-.29.01-1.21,0-2.23-.42-3.08-1.26-.84-.84-1.26-1.87-1.26-3.08s.42-2.23,1.26-3.05c.84-.84,1.87-1.26,3.08-1.26.95,0,1.81.29,2.6.87.77.54,1.28,1.27,1.52,2.18Z"/><path class="cls-10" d="m65.48,34.37c0,1.21-.31,2.33-.92,3.35s-1.46,1.84-2.52,2.43c-.95.54-1.91.8-2.89.76l-.45-1.95c1.88.09,3.28-.67,4.21-2.29.4-.72.61-1.5.61-2.34,0-1.82-.77-3.16-2.31-4.02-.72-.4-1.49-.6-2.31-.6s-1.7.25-2.52.76c-.81.49-1.37,1.13-1.68,1.92-.28.68-.43,1.39-.45,2.13-.12,2.88-1.52,4.91-4.18,6.1l-1.13-1.79c1.05-.28,1.87-.82,2.46-1.62.59-.8.88-1.73.88-2.8,0-1.32-.45-2.41-1.34-3.29-.89-.89-2-1.34-3.31-1.34s-2.39.45-3.29,1.34c-.89.89-1.34,1.99-1.34,3.29,0,1,.29,1.9.88,2.69.59.8,1.35,1.35,2.3,1.67l-1.03,1.76c-2.75-1.28-4.13-3.32-4.13-6.12,0-1.96.6-3.55,1.81-4.76,1.23-1.23,2.82-1.84,4.78-1.84,2.47,0,4.35,1.03,5.63,3.1,1.26-2.12,3.15-3.18,5.65-3.18.89-.02,1.74.15,2.55.5.8.35,1.52.84,2.13,1.46s1.1,1.34,1.45,2.14c.35.81.51,1.65.47,2.52Z"/><path class="cls-10" d="m61.09,47.62h-.58c-1.7,0-2.55-.85-2.55-2.55v-4.31h1.97v4.31c0,.23.03.4.08.53.1.04.27.05.5.05h.58v1.97Z"/><path class="cls-10" d="m79.91,38.53c-.07,1.12-.67,1.87-1.79,2.24-.68.25-1.73.35-3.13.32v6.6h-1.97v-6.62c-.67-.02-1.24-.04-1.71-.07-.47-.03-.86-.08-1.16-.14-1.09-.25-1.88-.73-2.37-1.45-.28-.39-.42-1.02-.42-1.89s.34-1.62,1.03-2.23c.7-.61,1.5-.92,2.39-.92.42,0,.87.08,1.34.24,2.02.65,2.94,2.17,2.79,4.55.21.02.4.03.58.04.17,0,.33.01.47.01.88,0,1.46-.23,1.76-.68.02-.07.03-.13.04-.18s.01-.11.01-.16c0-.26-.1-.49-.29-.68-.26-.46-1.31-1.47-3.13-3.05-.47-.42-1.64-1.48-3.5-3.18-.33-.44-.5-.86-.5-1.26,0-1.42,1.13-2.12,3.39-2.1,2.37.04,3.55.81,3.55,2.34,0,.23-.04.46-.13.68h-1.95c.09-.14.13-.25.13-.34,0-.32-.17-.52-.53-.6-.09-.02-.21-.03-.37-.04-.16,0-.35-.01-.58-.01-.53,0-.95.05-1.26.16l4.05,3.68,2.05,1.97c.88.84,1.27,1.78,1.18,2.81Zm-6.92.55c.14-1.46-.32-2.32-1.39-2.6-.35-.09-.65-.13-.89-.13-.93,0-1.4.38-1.42,1.13-.02.75.45,1.24,1.39,1.47.25.07.57.11.96.13s.85.02,1.35,0Z"/><path class="cls-10" d="m77.84,24.17l-1.79,1.26c.02-.6-.21-1.14-.68-1.63-.51-.47-1.06-.71-1.66-.71-.65,0-1.21.23-1.67.68-.46.46-.7,1.01-.7,1.66s.23,1.23.68,1.68c.46.46,1.02.68,1.68.68h.29c.11,0,.2,0,.29.03l-.03,1.89c-.09.02-.17.03-.26.04s-.18.01-.29.01c-1.21,0-2.23-.42-3.08-1.26-.84-.84-1.26-1.87-1.26-3.08s.42-2.23,1.26-3.05c.84-.84,1.87-1.26,3.08-1.26.95,0,1.81.29,2.6.87.77.54,1.28,1.27,1.53,2.18Z"/></g></g><g class="cls-9"><rect class="cls-2" x=".5" y="78.5" width="95" height="38"/><g><path class="cls-10" d="m24.41,98.45c-.04,2-.65,3.59-1.84,4.79s-2.78,1.79-4.76,1.79-3.58-.6-4.81-1.81c-1.21-1.21-1.81-2.8-1.81-4.78,0-2.24.99-4.09,2.97-5.55l1.45,1.45c-.12.09-.27.19-.45.32-.18.12-.38.28-.6.47-.91.91-1.37,2.02-1.37,3.31,0,.84.2,1.61.6,2.31,1.02-1.26,2.3-1.88,3.86-1.84,1.56.04,2.88.76,3.97,2.18.51-.75.78-1.63.82-2.63.02-1.28-.42-2.37-1.31-3.29-.1-.1-.25-.23-.43-.37-.18-.14-.42-.3-.7-.47l1.34-1.53c.21.14.41.29.6.45.19.16.39.33.58.53,1.28,1.28,1.91,2.84,1.89,4.68Zm-4.26,4c-.61-1.16-1.44-1.67-2.47-1.55-.02-.02-.09-.03-.21-.03-.96,0-1.74.45-2.31,1.34.77.56,1.66.84,2.66.84.86,0,1.64-.2,2.34-.6Z"/><path class="cls-10" d="m38.79,102.53c-.07,1.12-.67,1.87-1.79,2.24-.68.25-1.73.35-3.13.32-2.65-.02-4.26-.1-4.84-.24-1.09-.25-1.88-.73-2.37-1.45-.28-.39-.42-1.02-.42-1.89s.34-1.62,1.03-2.23c.7-.61,1.5-.92,2.39-.92.42,0,.87.08,1.34.24,2.02.65,2.94,2.17,2.79,4.55.21.02.4.03.58.04.17,0,.33.01.47.01.88,0,1.46-.23,1.76-.68.02-.07.03-.13.04-.18,0-.05.01-.11.01-.16,0-.26-.1-.49-.29-.68-.26-.46-1.31-1.47-3.13-3.05-.47-.42-1.64-1.48-3.5-3.18-.33-.44-.5-.86-.5-1.26,0-1.42,1.13-2.12,3.39-2.1,2.37.04,3.55.81,3.55,2.34,0,.23-.04.46-.13.68h-1.95c.09-.14.13-.25.13-.34,0-.32-.18-.52-.53-.6-.09-.02-.21-.03-.37-.04-.16,0-.35-.01-.58-.01-.53,0-.95.05-1.26.16l4.05,3.68,2.05,1.97c.88.84,1.27,1.78,1.18,2.81Zm-6.91.55c.14-1.46-.32-2.32-1.39-2.6-.35-.09-.65-.13-.89-.13-.93,0-1.4.38-1.42,1.13-.02.75.45,1.24,1.39,1.47.25.07.56.11.96.13.39.02.85.02,1.35,0Z"/><path class="cls-10" d="m40.27,107.31c0,.91-.23,1.73-.68,2.45-.7,1.12-1.89,1.75-3.58,1.89l-.32-1.95c1.74-.02,2.6-.81,2.6-2.39,0-.67-.22-1.23-.67-1.68s-1-.68-1.67-.68-1.23.23-1.68.68c-.46.46-.68,1.02-.68,1.68v.05c0,1.19-.42,2.21-1.26,3.05-.84.84-1.86,1.26-3.05,1.26s-2.23-.42-3.08-1.26c-.84-.81-1.26-1.82-1.26-3.05s.42-2.23,1.26-3.08c.84-.84,1.87-1.26,3.08-1.26,1.33,0,2.44.52,3.31,1.55.81-1.07,1.93-1.6,3.37-1.6,1.21,0,2.23.42,3.08,1.26.82.86,1.24,1.88,1.24,3.08Zm-8.65.05c0-.67-.22-1.23-.67-1.68-.45-.46-1-.68-1.67-.68s-1.23.23-1.68.68c-.46.46-.68,1.02-.68,1.68s.23,1.2.7,1.66c.46.46,1.02.68,1.67.68s1.2-.23,1.66-.68c.46-.46.68-1.01.68-1.66Z"/><path class="cls-10" d="m53.2,94.77l-1.39,1.55c-1.04-1.68-2.41-2.52-4.13-2.52-1.3,0-2.39.45-3.29,1.34-.89.89-1.34,1.99-1.34,3.29,0,1.68.71,2.98,2.13,3.89.28-1.52,1.16-2.57,2.63-3.13.46-.17.92-.26,1.39-.26.93,0,1.82.32,2.68.97.63.47.95,1.06.95,1.76,0,1.09-.72,1.98-2.16,2.68-.95.47-1.95.71-3,.71-1.98,0-3.58-.6-4.79-1.81-1.21-1.23-1.81-2.83-1.81-4.81s.6-3.55,1.81-4.76c1.23-1.23,2.82-1.84,4.79-1.84,2.24,0,4.08.98,5.52,2.94Zm-2.23,6.89c-.47-.53-1.05-.79-1.73-.79-.58,0-1.09.22-1.53.66-.44.42-.68.91-.71,1.47.09.02.17.03.26.03h.26c1.51,0,2.65-.46,3.44-1.37Z"/><path class="cls-10" d="m79.52,98.4c.03.89-.12,1.74-.47,2.55-.35.81-.83,1.52-1.45,2.13s-1.32,1.1-2.13,1.45c-.81.35-1.66.52-2.55.5-1.21,0-2.32-.29-3.34-.87-1.02-.58-1.81-1.39-2.39-2.45-.4-.72-.69-1.87-.87-3.44-.35-2.94-1.89-4.43-4.63-4.47-1.33-.02-2.44.42-3.34,1.31-.88.88-1.31,1.98-1.31,3.31s.45,2.38,1.34,3.29c.91.89,2.01,1.34,3.29,1.34.3,0,.48,0,.55-.03-.05.35-.11.69-.17,1.03s-.13.67-.2,1.03c-2.03.04-3.67-.56-4.92-1.79-1.25-1.24-1.87-2.87-1.87-4.86,0-1.86.64-3.42,1.92-4.68,1.28-1.28,2.86-1.92,4.73-1.92,2.16.04,3.79.77,4.89,2.21,1.07,1.17,1.63,2.65,1.68,4.42h-.03c.02.79.23,1.55.63,2.29.84,1.54,2.17,2.31,4,2.31.84,0,1.62-.2,2.34-.6,1.54-.86,2.31-2.2,2.31-4.02,0-.84-.2-1.62-.6-2.34-.89-1.54-2.24-2.31-4.05-2.31-.4,0-.77.04-1.1.11l.18-2.05c.3-.07.64-.1,1.03-.1.86-.02,1.69.16,2.48.54s1.5.88,2.12,1.5,1.1,1.34,1.45,2.14c.35.81.51,1.64.47,2.5Z"/><path class="cls-10" d="m85.22,94.67c0,.51-.18.94-.54,1.3s-.79.54-1.3.54-.95-.18-1.31-.54c-.37-.36-.55-.79-.55-1.3s.18-.94.55-1.3.81-.54,1.31-.54.94.18,1.3.54c.36.36.54.79.54,1.3Zm0,7.89c0,.51-.18.94-.54,1.3-.36.36-.79.54-1.3.54s-.95-.18-1.31-.54-.55-.79-.55-1.3.18-.94.55-1.3.81-.54,1.31-.54.94.18,1.3.54c.36.36.54.79.54,1.3Zm-1.34-7.89c0-.35-.17-.53-.5-.53-.35,0-.53.18-.53.53s.17.53.53.53.5-.17.5-.53Zm0,7.89c0-.35-.17-.53-.5-.53-.35,0-.53.18-.53.53s.17.53.53.53.5-.17.5-.53Z"/></g></g><g class="cls-6"><rect class="cls-2" x=".5" y="142.5" width="95" height="38"/><g><path class="cls-10" d="m42.25,172.05c0,1-.35,1.85-1.05,2.55s-1.57,1.08-2.55,1.08h-9.75c-.98,0-1.83-.36-2.55-1.08s-1.05-1.55-1.05-2.55v-19.19c0-1,.35-1.85,1.05-2.55.72-.72,1.57-1.08,2.55-1.08h9.75c.98,0,1.83.36,2.55,1.08.7.7,1.05,1.55,1.05,2.55v1.26h-1.97v-1.26c0-.46-.16-.85-.47-1.17s-.7-.49-1.16-.49h-9.75c-.46,0-.84.16-1.16.49s-.47.71-.47,1.17v19.19c0,.46.16.85.47,1.17s.7.49,1.16.49h9.75c.46,0,.84-.16,1.16-.49s.47-.71.47-1.17v-5.15h1.97v5.15Z"/><path class="cls-10" d="m42.23,162.45c-.04,2-.65,3.59-1.84,4.79s-2.78,1.79-4.76,1.79-3.58-.6-4.81-1.81c-1.21-1.21-1.81-2.8-1.81-4.78,0-2.24.99-4.09,2.97-5.55l1.45,1.45c-.12.09-.27.19-.45.32-.18.12-.38.28-.6.47-.91.91-1.37,2.02-1.37,3.31s.45,2.39,1.34,3.29c.89.89,1.99,1.34,3.29,1.34s2.38-.44,3.26-1.31c.88-.88,1.33-1.97,1.37-3.29.02-1.28-.42-2.37-1.31-3.29-.1-.1-.25-.23-.43-.37-.18-.14-.42-.3-.7-.47l1.34-1.53c.21.14.41.29.6.45.19.16.39.33.58.53,1.28,1.28,1.91,2.84,1.89,4.68Z"/><path class="cls-10" d="m67.54,172.05c0,.98-.36,1.83-1.08,2.55s-1.57,1.08-2.55,1.08h-16.17c-.98,0-1.83-.36-2.55-1.08s-1.05-1.55-1.05-2.55v-5.94h.08l-.1-.16,1.45-1.37c.98,1.67,2.35,2.5,4.1,2.5,1.31,0,2.41-.45,3.29-1.34.89-.89,1.34-2,1.34-3.31s-.45-2.39-1.34-3.29c-.89-.89-1.99-1.34-3.29-1.34-1.74,0-3.11.84-4.13,2.52l-1.39-1.55c1.44-1.96,3.28-2.94,5.52-2.94,1.96,0,3.55.61,4.76,1.84,1.23,1.21,1.84,2.8,1.84,4.76v.16c0,.68.21,1.4.63,2.16.84,1.54,2.17,2.31,4,2.31.84,0,1.62-.2,2.34-.6,1.54-.86,2.31-2.2,2.31-4.02,0-1.37-.42-2.49-1.26-3.37-.84-.88-1.95-1.32-3.31-1.32-.18,0-.34.01-.5.04-.16.03-.32.06-.5.09l.45-2.08c.09-.02.18-.03.29-.03h.32c.86-.02,1.69.16,2.48.53.8.37,1.5.86,2.1,1.47.6.61,1.08,1.32,1.43,2.13.35.81.51,1.64.47,2.5.04.89-.12,1.74-.47,2.55-.35.81-.83,1.52-1.45,2.13s-1.32,1.1-2.13,1.45c-.81.35-1.66.52-2.55.5-2.49,0-4.36-1.04-5.63-3.13-1.32,2.1-3.19,3.16-5.63,3.16-1.3,0-2.48-.37-3.55-1.1v4.1c0,.46.16.85.47,1.17s.7.49,1.16.49h16.17c.46,0,.85-.16,1.17-.49.32-.32.49-.71.49-1.17v-1.34h1.97v1.34Z"/><path class="cls-10" d="m65.1,152.17l-1.79,1.26c.02-.6-.21-1.14-.68-1.63-.51-.47-1.06-.71-1.66-.71-.65,0-1.21.23-1.67.68-.46.46-.7,1.01-.7,1.66s.23,1.23.68,1.68c.46.46,1.02.68,1.68.68h.29c.11,0,.2,0,.29.03l-.03,1.89c-.09.02-.17.03-.26.04s-.18.01-.29.01c-1.21,0-2.24-.42-3.08-1.26-.84-.84-1.26-1.87-1.26-3.08s.42-2.23,1.26-3.05c.84-.84,1.87-1.26,3.08-1.26.95,0,1.81.29,2.6.87.77.54,1.28,1.27,1.53,2.18Z"/></g></g><g class="cls-11"><rect class="cls-2" x=".5" y="206.5" width="95" height="38"/><g><path class="cls-10" d="m30.06,225.11c-.04,2-.65,3.59-1.84,4.79s-2.78,1.79-4.76,1.79-3.58-.6-4.81-1.81c-1.21-1.21-1.81-2.8-1.81-4.78,0-2.24.99-4.09,2.97-5.55l1.45,1.45c-.12.09-.27.19-.45.32-.18.12-.38.28-.6.47-.91.91-1.37,2.02-1.37,3.31s.45,2.39,1.34,3.29c.89.89,1.99,1.34,3.29,1.34s2.38-.44,3.26-1.31c.88-.88,1.33-1.97,1.37-3.29.02-1.28-.42-2.37-1.31-3.29-.1-.1-.25-.23-.43-.37-.18-.14-.42-.3-.7-.47l1.34-1.53c.21.14.41.29.6.45.19.16.39.33.58.53,1.28,1.28,1.91,2.84,1.89,4.68Z"/><path class="cls-10" d="m44.15,225.09c0,1.98-.61,3.58-1.84,4.78-1.21,1.21-2.8,1.81-4.78,1.81-1.84,0-3.4-.64-4.68-1.92-.33-.33-.5-.78-.5-1.34,0-.09.02-.2.05-.34.25-1.38,1.27-2.22,3.08-2.5.07-.02.21-.03.42-.03,2.09,0,3.47,1.14,4.15,3.42.3-.21.55-.42.76-.63.89-.89,1.34-1.98,1.34-3.26s-.45-2.44-1.34-3.31c-.88-.89-1.98-1.33-3.31-1.31-1.31.04-2.41.49-3.29,1.37-.35.35-.63.74-.84,1.16l-1.39-1.53c1.28-1.95,3.12-2.94,5.52-2.97,2-.02,3.6.58,4.81,1.79,1.23,1.21,1.84,2.81,1.84,4.81Zm-5.89,4.57c-.25-1.19-.86-1.87-1.84-2.02-.12-.02-.23-.03-.32-.04-.09,0-.17-.01-.24-.01-.74,0-1.27.27-1.6.82.91.88,2,1.31,3.26,1.31.12,0,.25,0,.37-.01.12,0,.25-.02.37-.04Z"/><path class="cls-10" d="m39.7,238.29h-.58c-1.7,0-2.55-.85-2.55-2.55v-4.31h1.97v4.31c0,.23.03.4.08.53.11.04.27.05.5.05h.58v1.97Z"/><path class="cls-10" d="m70.44,225.04c0,1.21-.31,2.33-.92,3.35s-1.46,1.84-2.52,2.43c-.95.54-1.91.8-2.89.76l-.45-1.95c1.88.09,3.28-.67,4.21-2.29.4-.72.61-1.5.61-2.34,0-1.82-.77-3.16-2.31-4.02-.72-.4-1.49-.6-2.31-.6s-1.7.25-2.52.76c-.81.49-1.37,1.13-1.68,1.92-.28.68-.43,1.39-.45,2.13-.12,2.88-1.52,4.91-4.18,6.1l-1.13-1.79c1.05-.28,1.87-.82,2.46-1.62s.88-1.73.88-2.8c0-1.32-.45-2.41-1.34-3.29-.89-.89-2-1.34-3.31-1.34s-2.39.45-3.29,1.34-1.34,1.99-1.34,3.29c0,1,.29,1.9.88,2.69.59.8,1.35,1.35,2.3,1.67l-1.03,1.76c-2.75-1.28-4.13-3.32-4.13-6.12,0-1.96.6-3.55,1.81-4.76,1.23-1.23,2.82-1.84,4.79-1.84,2.47,0,4.35,1.03,5.63,3.1,1.26-2.12,3.15-3.18,5.65-3.18.89-.02,1.74.15,2.55.5.8.35,1.52.84,2.13,1.46s1.1,1.34,1.45,2.14c.35.81.51,1.65.47,2.52Z"/><path class="cls-10" d="m65.92,235.97c0,.96-.22,1.74-.66,2.34l-2.1-.58c.53-.42.79-1.01.79-1.76,0-.67-.22-1.23-.67-1.68-.45-.46-1-.68-1.67-.68-.63,0-1.18.21-1.64.62-.46.41-.7.92-.7,1.54v.21c0,.95-.23,1.73-.68,2.34l-2.1-.58c.54-.42.81-1.01.81-1.76h-.03l.03-.16c-.04-.63-.28-1.16-.74-1.58-.46-.42-1-.63-1.63-.63-.67,0-1.22.23-1.67.68-.45.46-.67,1.02-.67,1.68s.19,1.24.58,1.68l-1.89.61c-.47-.81-.69-1.57-.66-2.29.05-1.31.46-2.37,1.21-3.15.75-.79,1.79-1.18,3.1-1.18s2.46.52,3.34,1.55c.82-1.04,1.94-1.55,3.34-1.55,1.21,0,2.24.42,3.08,1.26.82.86,1.24,1.88,1.24,3.08Z"/><path class="cls-10" d="m74.33,238.29h-1.97v-19.82h1.97v19.82Zm4.97,0h-.55c-1.72,0-2.58-.85-2.58-2.55v-17.27h1.97v17.27c0,.23.03.4.08.53.1.04.28.05.53.05h.55v1.97Z"/></g></g><g class="cls-3"><rect class="cls-2" x=".5" y="403.5" width="95" height="38"/><g><path class="cls-10" d="m34.32,423c-.04,2.14-.69,3.84-1.97,5.11s-2.97,1.91-5.08,1.91-3.83-.65-5.14-1.94c-1.29-1.29-1.94-3-1.94-5.11,0-2.4,1.06-4.37,3.17-5.93l1.54,1.54c-.13.09-.29.21-.48.34-.19.13-.4.3-.65.51-.97.97-1.46,2.15-1.46,3.54s.48,2.56,1.43,3.51c.96.96,2.12,1.43,3.51,1.43s2.55-.47,3.48-1.41c.94-.94,1.42-2.11,1.46-3.51.02-1.37-.45-2.54-1.4-3.51-.11-.11-.27-.24-.46-.39-.2-.15-.45-.32-.74-.51l1.43-1.63c.23.15.44.31.65.48.21.17.41.36.62.56,1.37,1.37,2.04,3.03,2.02,5Z"/><path class="cls-10" d="m29.62,437.08h-.62c-1.82,0-2.73-.91-2.73-2.72v-4.61h2.11v4.61c0,.24.03.43.08.56.11.04.29.06.53.06h.62v2.11Z"/><path class="cls-10" d="m61.4,422.95c.04.96-.13,1.86-.51,2.72-.38.86-.89,1.62-1.54,2.28s-1.41,1.17-2.28,1.54c-.86.38-1.77.55-2.72.53-2.66,0-4.66-1.11-6.01-3.34-1.4,2.25-3.41,3.37-6.01,3.37s-4.45-1.11-5.93-3.32l1.54-1.46c1.05,1.78,2.51,2.67,4.38,2.67,1.4,0,2.57-.48,3.51-1.43.96-.96,1.43-2.13,1.43-3.54s-.48-2.56-1.43-3.51c-.96-.96-2.13-1.43-3.51-1.43-1.85,0-3.32.9-4.41,2.7l-1.49-1.66c1.54-2.1,3.5-3.15,5.9-3.15,2.1,0,3.79.66,5.08,1.97,1.31,1.29,1.97,2.99,1.97,5.08v.17c0,.73.22,1.5.67,2.3.9,1.65,2.32,2.47,4.27,2.47.9,0,1.73-.22,2.5-.65,1.65-.92,2.47-2.35,2.47-4.3,0-1.46-.45-2.66-1.35-3.6-.9-.94-2.08-1.4-3.54-1.4-.19,0-.37.01-.53.04-.17.03-.35.06-.53.1l.48-2.22c.09-.02.2-.03.31-.03h.34c.92-.02,1.8.17,2.66.56.85.39,1.6.92,2.25,1.57.65.66,1.16,1.41,1.53,2.28s.54,1.75.51,2.67Z"/><path class="cls-10" d="m59.01,413.37c0,1.27-.44,2.37-1.32,3.29-.9.9-1.99,1.35-3.29,1.35s-2.39-.45-3.29-1.35c-.9-.9-1.35-2-1.35-3.29s.45-2.38,1.35-3.26c.9-.9,2-1.35,3.29-1.35s2.36.45,3.26,1.35,1.35,1.99,1.35,3.26Zm-2.11,0c0-.69-.24-1.28-.73-1.77-.49-.49-1.08-.73-1.77-.73s-1.29.24-1.78.73-.74,1.08-.74,1.77.24,1.31.73,1.8c.49.49,1.09.73,1.8.73s1.31-.24,1.78-.73.72-1.09.72-1.8Z"/><path class="cls-10" d="m77.52,423c-.04,2.14-.69,3.84-1.97,5.11s-2.97,1.91-5.08,1.91-3.83-.65-5.14-1.94c-1.29-1.29-1.94-3-1.94-5.11,0-2.4,1.06-4.37,3.17-5.93l1.54,1.54c-.13.09-.29.21-.48.34-.19.13-.4.3-.65.51-.97.97-1.46,2.15-1.46,3.54,0,.9.21,1.72.65,2.47,1.08-1.35,2.46-2,4.13-1.97,1.67.04,3.08.82,4.24,2.33.54-.8.83-1.74.87-2.81.02-1.37-.45-2.54-1.4-3.51-.11-.11-.27-.24-.46-.39-.2-.15-.44-.32-.74-.51l1.43-1.63c.22.15.44.31.65.48s.41.36.62.56c1.37,1.37,2.04,3.03,2.02,5Zm-4.55,4.27c-.66-1.24-1.54-1.79-2.64-1.66-.02-.02-.09-.03-.22-.03-1.03,0-1.85.48-2.47,1.43.82.6,1.77.9,2.84.9.92,0,1.75-.22,2.5-.65Z"/><path class="cls-10" d="m74.94,412.02l-1.91,1.35c.02-.64-.22-1.22-.73-1.74-.54-.5-1.13-.76-1.77-.76-.69,0-1.29.24-1.78.73-.5.49-.74,1.08-.74,1.77s.24,1.31.73,1.8,1.09.73,1.8.73h.31c.11,0,.22,0,.31.03l-.03,2.02c-.09.02-.19.03-.28.04-.09,0-.2.01-.31.01-1.29,0-2.39-.45-3.29-1.35-.9-.9-1.35-2-1.35-3.29s.45-2.38,1.35-3.26c.9-.9,2-1.35,3.29-1.35,1.01,0,1.94.31,2.78.93.82.58,1.37,1.36,1.63,2.33Z"/></g></g><g class="cls-4"><rect class="cls-2" x=".5" y="467.5" width="95" height="38"/><g><path class="cls-10" d="m25.32,487c-.04,2.14-.69,3.84-1.97,5.11s-2.97,1.91-5.08,1.91-3.83-.65-5.14-1.94c-1.29-1.29-1.94-3-1.94-5.11,0-2.4,1.06-4.37,3.17-5.93l1.54,1.54c-.13.09-.29.21-.48.34-.19.13-.4.3-.65.51-.97.97-1.46,2.15-1.46,3.54,0,.9.22,1.72.65,2.47,1.09-1.35,2.46-2,4.13-1.97,1.67.04,3.08.82,4.24,2.33.54-.8.83-1.74.87-2.81.02-1.37-.45-2.54-1.4-3.51-.11-.11-.27-.24-.46-.39-.2-.15-.45-.32-.74-.51l1.43-1.63c.23.15.44.31.65.48.21.17.41.36.62.56,1.37,1.37,2.04,3.03,2.02,5Zm-4.55,4.27c-.66-1.24-1.54-1.79-2.64-1.66-.02-.02-.09-.03-.22-.03-1.03,0-1.85.48-2.47,1.43.82.6,1.77.9,2.84.9.92,0,1.75-.22,2.5-.65Z"/><path class="cls-10" d="m20.62,501.08h-.62c-1.82,0-2.73-.91-2.73-2.72v-4.61h2.11v4.61c0,.24.03.43.08.56.11.04.29.06.53.06h.62v2.11Z"/><path class="cls-10" d="m22.98,477.37c0,1.27-.44,2.37-1.32,3.29-.9.9-1.99,1.35-3.29,1.35s-2.39-.45-3.29-1.35c-.9-.9-1.35-2-1.35-3.29s.45-2.38,1.35-3.26c.9-.9,1.99-1.35,3.29-1.35s2.36.45,3.26,1.35,1.35,1.99,1.35,3.26Zm-2.11,0c0-.69-.24-1.28-.73-1.77-.49-.49-1.08-.73-1.77-.73s-1.29.24-1.78.73c-.5.49-.74,1.08-.74,1.77s.24,1.31.73,1.8c.49.49,1.09.73,1.8.73s1.31-.24,1.78-.73c.48-.49.72-1.09.72-1.8Z"/><path class="cls-10" d="m31.52,482.96c0,.54-.19,1.01-.58,1.39s-.85.58-1.39.58-1.01-.19-1.4-.58c-.39-.38-.59-.85-.59-1.39s.2-1.01.59-1.39c.39-.38.86-.58,1.4-.58s1.01.19,1.39.58c.38.38.58.85.58,1.39Zm0,8.43c0,.54-.19,1.01-.58,1.39s-.85.58-1.39.58-1.01-.19-1.4-.58c-.39-.38-.59-.85-.59-1.39s.2-1.01.59-1.39c.39-.38.86-.58,1.4-.58s1.01.19,1.39.58.58.85.58,1.39Zm-1.43-8.43c0-.37-.18-.56-.53-.56-.37,0-.56.19-.56.56s.19.56.56.56.53-.19.53-.56Zm0,8.43c0-.37-.18-.56-.53-.56-.37,0-.56.19-.56.56s.19.56.56.56.53-.19.53-.56Z"/><path class="cls-10" d="m59.59,486.92c0,1.29-.33,2.49-.98,3.58s-1.55,1.96-2.7,2.6c-1.01.58-2.04.85-3.09.81l-.48-2.08c2,.09,3.5-.72,4.49-2.44.43-.77.65-1.6.65-2.5,0-1.95-.82-3.38-2.47-4.3-.77-.43-1.59-.65-2.47-.65s-1.82.27-2.7.82c-.86.52-1.46,1.21-1.8,2.05-.3.73-.46,1.49-.48,2.28-.13,3.07-1.62,5.24-4.47,6.52l-1.21-1.91c1.12-.3,2-.88,2.63-1.73.63-.85.94-1.85.94-2.99,0-1.41-.48-2.58-1.43-3.51-.96-.96-2.14-1.43-3.54-1.43s-2.56.48-3.51,1.43-1.43,2.13-1.43,3.51c0,1.07.31,2.03.94,2.88.63.85,1.45,1.45,2.46,1.78l-1.1,1.88c-2.94-1.37-4.41-3.55-4.41-6.54,0-2.1.65-3.79,1.94-5.08,1.31-1.31,3.02-1.97,5.11-1.97,2.64,0,4.64,1.1,6.01,3.31,1.35-2.27,3.36-3.4,6.04-3.4.96-.02,1.86.16,2.73.53.86.38,1.62.89,2.28,1.56.65.67,1.17,1.43,1.54,2.29.37.86.54,1.76.51,2.7Z"/><path class="cls-10" d="m54.9,501.08h-.62c-1.82,0-2.73-.91-2.73-2.72v-4.61h2.11v4.61c0,.24.03.43.08.56.11.04.29.06.53.06h.62v2.11Z"/><path class="cls-10" d="m87.74,486.92c0,1.29-.33,2.49-.98,3.58-.66,1.1-1.55,1.96-2.7,2.6-1.01.58-2.04.85-3.09.81l-.48-2.08c2,.09,3.5-.72,4.5-2.44.43-.77.65-1.6.65-2.5,0-1.95-.82-3.38-2.47-4.3-.77-.43-1.59-.65-2.47-.65s-1.82.27-2.7.82c-.86.52-1.46,1.21-1.8,2.05-.09.26-.18.57-.27.93-.08.36-.15.76-.18,1.21v.06c0,2.15-.65,3.86-1.94,5.11-1.31,1.27-3.03,1.91-5.14,1.91s-3.8-.65-5.11-1.94c-1.29-1.31-1.94-3.01-1.94-5.11s.65-3.85,1.94-5.14c1.33-1.29,3.05-1.93,5.17-1.91,2.57.02,4.54,1.11,5.93,3.29,1.4-2.25,3.42-3.37,6.04-3.37.96-.02,1.86.16,2.73.53.86.38,1.62.89,2.28,1.56.66.67,1.17,1.43,1.54,2.29.37.86.54,1.76.51,2.7Zm-14.1.14c.02-1.42-.45-2.61-1.4-3.57-.92-.94-2.1-1.42-3.54-1.46-1.42-.02-2.61.45-3.57,1.4s-1.4,2.12-1.4,3.54.48,2.56,1.43,3.51c.96.96,2.12,1.43,3.51,1.43s2.57-.46,3.51-1.38c.94-.92,1.42-2.08,1.46-3.48Z"/><path class="cls-10" d="m85.15,476.02l-1.91,1.35c.02-.64-.22-1.22-.73-1.74-.54-.51-1.13-.76-1.77-.76-.69,0-1.29.24-1.78.73-.5.49-.74,1.08-.74,1.77s.24,1.31.73,1.8c.49.49,1.09.73,1.8.73h.31c.11,0,.22,0,.31.03l-.03,2.02c-.09.02-.19.03-.28.04-.09,0-.2.01-.31.01-1.29,0-2.39-.45-3.29-1.35-.9-.9-1.35-2-1.35-3.29s.45-2.38,1.35-3.26c.9-.9,2-1.35,3.29-1.35,1.01,0,1.94.31,2.78.93.82.58,1.37,1.36,1.63,2.33Z"/></g></g></g></svg>