<?xml version="1.0" encoding="UTF-8"?><svg id="Layer_1" xmlns="http://www.w3.org/2000/svg" xmlns:xlink="http://www.w3.org/1999/xlink" viewBox="0 0 96 513"><defs><style>.cls-1{clip-path:url(#clippath-2);}.cls-2{fill:#383f5e;stroke:#9997a6;stroke-miterlimit:10;}.cls-3{clip-path:url(#clippath-6);}.cls-4{clip-path:url(#clippath-7);}.cls-5{clip-path:url(#clippath-1);}.cls-6{clip-path:url(#clippath-4);}.cls-7{clip-path:url(#clippath);}.cls-8{fill:none;}.cls-9{clip-path:url(#clippath-3);}.cls-10{fill:#ffc3b3;}.cls-11{clip-path:url(#clippath-5);}</style><clipPath id="clippath"><rect class="cls-8" x="0" width="96" height="64"/></clipPath><clipPath id="clippath-1"><rect class="cls-8" x="0" y="65" width="96" height="64"/></clipPath><clipPath id="clippath-2"><rect class="cls-8" x="0" y="129" width="96" height="64"/></clipPath><clipPath id="clippath-3"><rect class="cls-8" x="0" y="193" width="96" height="64"/></clipPath><clipPath id="clippath-4"><rect class="cls-8" x="0" y="257" width="96" height="64"/></clipPath><clipPath id="clippath-5"><rect class="cls-8" x="0" y="321" width="96" height="64"/></clipPath><clipPath id="clippath-6"><rect class="cls-8" x="0" y="385" width="96" height="64"/></clipPath><clipPath id="clippath-7"><rect class="cls-8" x="0" y="449" width="96" height="64"/></clipPath></defs><g class="cls-7"><rect class="cls-2" x=".5" y="14.5" width="95" height="38"/><g><path class="cls-10" d="m25.6,47.41h-.55c-1.72,0-2.58-.86-2.58-2.58v-10.54c0-1.37-.43-2.45-1.29-3.26-.88-.84-1.99-1.26-3.34-1.26-1.47,0-2.66.55-3.58,1.66-.72.88-1.08,1.88-1.08,3,0,.42.07.87.21,1.34.81-.65,1.67-.97,2.58-.97,1.05,0,1.94.31,2.67.93.73.62,1.21,1.46,1.46,2.51.05.25.08.46.08.63,0,.67-.25,1.2-.74,1.59s-1.08.59-1.76.59c-1.47,0-2.84-.53-4.1-1.58-1.58-1.32-2.37-3-2.37-5.05,0-1.59.52-3.01,1.55-4.26,1.31-1.58,3.01-2.37,5.07-2.37,1.58,0,2.99.52,4.23,1.55,1.52,1.26,2.3,2.91,2.34,4.94h.03v10.54c0,.23.03.4.08.53.07.05.25.08.53.08h.55v1.97Zm-7.34-8.41c-.02-.67-.25-1.21-.71-1.63-.46-.42-1.02-.61-1.68-.58-.63.02-1.13.25-1.5.68l.37.37c1.05.88,2.16,1.27,3.31,1.18.09,0,.16,0,.21-.03Z"/><path class="cls-10" d="m38.79,38.53c-.07,1.12-.67,1.87-1.79,2.24-.68.25-1.73.35-3.13.32v6.6h-1.97v-6.62c-.67-.02-1.24-.04-1.71-.07s-.86-.08-1.16-.14c-1.09-.25-1.88-.73-2.37-1.45-.28-.39-.42-1.02-.42-1.89s.34-1.62,1.03-2.23c.7-.61,1.5-.92,2.39-.92.42,0,.87.08,1.34.24,2.02.65,2.94,2.17,2.79,4.55.21.02.4.03.58.04.17,0,.33.01.47.01.88,0,1.46-.23,1.76-.68.02-.07.03-.13.04-.18,0-.05.01-.11.01-.16,0-.26-.1-.49-.29-.68-.26-.46-1.31-1.47-3.13-3.05-.47-.42-1.64-1.48-3.5-3.18-.33-.44-.5-.86-.5-1.26,0-1.42,1.13-2.12,3.39-2.1,2.37.04,3.55.81,3.55,2.34,0,.23-.04.46-.13.68h-1.95c.09-.14.13-.25.13-.34,0-.32-.18-.52-.53-.6-.09-.02-.21-.03-.37-.04-.16,0-.35-.01-.58-.01-.53,0-.95.05-1.26.16l4.05,3.68,2.05,1.97c.88.84,1.27,1.78,1.18,2.81Zm-6.91.55c.14-1.46-.32-2.32-1.39-2.6-.35-.09-.65-.13-.89-.13-.93,0-1.4.38-1.42,1.13-.02.75.45,1.24,1.39,1.47.25.07.56.11.96.13.39.02.85.02,1.35,0Z"/><path class="cls-10" d="m36.72,24.17l-1.79,1.26c.02-.6-.21-1.14-.68-1.63-.51-.47-1.06-.71-1.66-.71-.65,0-1.21.23-1.67.68-.46.46-.7,1.01-.7,1.66s.23,1.23.68,1.68,1.02.68,1.68.68h.29c.11,0,.2,0,.29.03l-.03,1.89c-.09.02-.18.03-.26.04-.09,0-.18.01-.29.01-1.21,0-2.23-.42-3.08-1.26-.84-.84-1.26-1.87-1.26-3.08s.42-2.23,1.26-3.05c.84-.84,1.87-1.26,3.08-1.26.95,0,1.81.29,2.6.87.77.54,1.28,1.27,1.52,2.18Z"/><path class="cls-10" d="m65.48,34.37c0,1.21-.31,2.33-.92,3.35s-1.46,1.84-2.52,2.43c-.95.54-1.91.8-2.89.76l-.45-1.95c1.88.09,3.28-.67,4.21-2.29.4-.72.61-1.5.61-2.34,0-1.82-.77-3.16-2.31-4.02-.72-.4-1.49-.6-2.31-.6s-1.7.25-2.52.76c-.81.49-1.37,1.13-1.68,1.92-.28.68-.43,1.39-.45,2.13-.12,2.88-1.52,4.91-4.18,6.1l-1.13-1.79c1.05-.28,1.87-.82,2.46-1.62.59-.8.88-1.73.88-2.8,0-1.32-.45-2.41-1.34-3.29-.89-.89-2-1.34-3.31-1.34s-2.39.45-3.29,1.34c-.89.89-1.34,1.99-1.34,3.29,0,1,.29,1.9.88,2.69.59.8,1.35,1.35,2.3,1.67l-1.03,1.76c-2.75-1.28-4.13-3.32-4.13-6.12,0-1.96.6-3.55,1.81-4.76,1.23-1.23,2.82-1.84,4.78-1.84,2.47,0,4.35,1.03,5.63,3.1,1.26-2.12,3.15-3.18,5.65-3.18.89-.02,1.74.15,2.55.5.8.35,1.52.84,2.13,1.46s1.1,1.34,1.45,2.14c.35.81.51,1.65.47,2.52Z"/><path class="cls-10" d="m61.09,47.62h-.58c-1.7,0-2.55-.85-2.55-2.55v-4.31h1.97v4.31c0,.23.03.4.08.53.1.04.27.05.5.05h.58v1.97Z"/><path class="cls-10" d="m79.91,38.53c-.07,1.12-.67,1.87-1.79,2.24-.68.25-1.73.35-3.13.32v6.6h-1.97v-6.62c-.67-.02-1.24-.04-1.71-.07-.47-.03-.86-.08-1.16-.14-1.09-.25-1.88-.73-2.37-1.45-.28-.39-.42-1.02-.42-1.89s.34-1.62,1.03-2.23c.7-.61,1.5-.92,2.39-.92.42,0,.87.08,1.34.24,2.02.65,2.94,2.17,2.79,4.55.21.02.4.03.58.04.17,0,.33.01.47.01.88,0,1.46-.23,1.76-.68.02-.07.03-.13.04-.18s.01-.11.01-.16c0-.26-.1-.49-.29-.68-.26-.46-1.31-1.47-3.13-3.05-.47-.42-1.64-1.48-3.5-3.18-.33-.44-.5-.86-.5-1.26,0-1.42,1.13-2.12,3.39-2.1,2.37.04,3.55.81,3.55,2.34,0,.23-.04.46-.13.68h-1.95c.09-.14.13-.25.13-.34,0-.32-.17-.52-.53-.6-.09-.02-.21-.03-.37-.04-.16,0-.35-.01-.58-.01-.53,0-.95.05-1.26.16l4.05,3.68,2.05,1.97c.88.84,1.27,1.78,1.18,2.81Zm-6.92.55c.14-1.46-.32-2.32-1.39-2.6-.35-.09-.65-.13-.89-.13-.93,0-1.4.38-1.42,1.13-.02.75.45,1.24,1.39,1.47.25.07.57.11.96.13s.85.02,1.35,0Z"/><path class="cls-10" d="m77.84,24.17l-1.79,1.26c.02-.6-.21-1.14-.68-1.63-.51-.47-1.06-.71-1.66-.71-.65,0-1.21.23-1.67.68-.46.46-.7,1.01-.7,1.66s.23,1.23.68,1.68c.46.46,1.02.68,1.68.68h.29c.11,0,.2,0,.29.03l-.03,1.89c-.09.02-.17.03-.26.04s-.18.01-.29.01c-1.21,0-2.23-.42-3.08-1.26-.84-.84-1.26-1.87-1.26-3.08s.42-2.23,1.26-3.05c.84-.84,1.87-1.26,3.08-1.26.95,0,1.81.29,2.6.87.77.54,1.28,1.27,1.53,2.18Z"/></g></g><g class="cls-5"><rect class="cls-2" x=".5" y="79.5" width="95" height="38"/><g><path class="cls-10" d="m24.41,99.45c-.04,2-.65,3.59-1.84,4.79s-2.78,1.79-4.76,1.79-3.58-.6-4.81-1.81c-1.21-1.21-1.81-2.8-1.81-4.78,0-2.24.99-4.09,2.97-5.55l1.45,1.45c-.12.09-.27.19-.45.32-.18.12-.38.28-.6.47-.91.91-1.37,2.02-1.37,3.31,0,.84.2,1.61.6,2.31,1.02-1.26,2.3-1.88,3.86-1.84,1.56.04,2.88.76,3.97,2.18.51-.75.78-1.63.82-2.63.02-1.28-.42-2.37-1.31-3.29-.1-.1-.25-.23-.43-.37-.18-.14-.42-.3-.7-.47l1.34-1.53c.21.14.41.29.6.45.19.16.39.33.58.53,1.28,1.28,1.91,2.84,1.89,4.68Zm-4.26,4c-.61-1.16-1.44-1.67-2.47-1.55-.02-.02-.09-.03-.21-.03-.96,0-1.74.45-2.31,1.34.77.56,1.66.84,2.66.84.86,0,1.64-.2,2.34-.6Z"/><path class="cls-10" d="m38.79,103.53c-.07,1.12-.67,1.87-1.79,2.24-.68.25-1.73.35-3.13.32-2.65-.02-4.26-.1-4.84-.24-1.09-.25-1.88-.73-2.37-1.45-.28-.39-.42-1.02-.42-1.89s.34-1.62,1.03-2.23c.7-.61,1.5-.92,2.39-.92.42,0,.87.08,1.34.24,2.02.65,2.94,2.17,2.79,4.55.21.02.4.03.58.04.17,0,.33.01.47.01.88,0,1.46-.23,1.76-.68.02-.07.03-.13.04-.18,0-.05.01-.11.01-.16,0-.26-.1-.49-.29-.68-.26-.46-1.31-1.47-3.13-3.05-.47-.42-1.64-1.48-3.5-3.18-.33-.44-.5-.86-.5-1.26,0-1.42,1.13-2.12,3.39-2.1,2.37.04,3.55.81,3.55,2.34,0,.23-.04.46-.13.68h-1.95c.09-.14.13-.25.13-.34,0-.32-.18-.52-.53-.6-.09-.02-.21-.03-.37-.04-.16,0-.35-.01-.58-.01-.53,0-.95.05-1.26.16l4.05,3.68,2.05,1.97c.88.84,1.27,1.78,1.18,2.81Zm-6.91.55c.14-1.46-.32-2.32-1.39-2.6-.35-.09-.65-.13-.89-.13-.93,0-1.4.38-1.42,1.13-.02.75.45,1.24,1.39,1.47.25.07.56.11.96.13.39.02.85.02,1.35,0Z"/><path class="cls-10" d="m40.27,108.31c0,.91-.23,1.73-.68,2.45-.7,1.12-1.89,1.75-3.58,1.89l-.32-1.95c1.74-.02,2.6-.81,2.6-2.39,0-.67-.22-1.23-.67-1.68s-1-.68-1.67-.68-1.23.23-1.68.68c-.46.46-.68,1.02-.68,1.68v.05c0,1.19-.42,2.21-1.26,3.05-.84.84-1.86,1.26-3.05,1.26s-2.23-.42-3.08-1.26c-.84-.81-1.26-1.82-1.26-3.05s.42-2.23,1.26-3.08c.84-.84,1.87-1.26,3.08-1.26,1.33,0,2.44.52,3.31,1.55.81-1.07,1.93-1.6,3.37-1.6,1.21,0,2.23.42,3.08,1.26.82.86,1.24,1.88,1.24,3.08Zm-8.65.05c0-.67-.22-1.23-.67-1.68-.45-.46-1-.68-1.67-.68s-1.23.23-1.68.68c-.46.46-.68,1.02-.68,1.68s.23,1.2.7,1.66c.46.46,1.02.68,1.67.68s1.2-.23,1.66-.68c.46-.46.68-1.01.68-1.66Z"/><path class="cls-10" d="m53.2,95.77l-1.39,1.55c-1.04-1.68-2.41-2.52-4.13-2.52-1.3,0-2.39.45-3.29,1.34-.89.89-1.34,1.99-1.34,3.29,0,1.68.71,2.98,2.13,3.89.28-1.52,1.16-2.57,2.63-3.13.46-.17.92-.26,1.39-.26.93,0,1.82.32,2.68.97.63.47.95,1.06.95,1.76,0,1.09-.72,1.98-2.16,2.68-.95.47-1.95.71-3,.71-1.98,0-3.58-.6-4.79-1.81-1.21-1.23-1.81-2.83-1.81-4.81s.6-3.55,1.81-4.76c1.23-1.23,2.82-1.84,4.79-1.84,2.24,0,4.08.98,5.52,2.94Zm-2.23,6.89c-.47-.53-1.05-.79-1.73-.79-.58,0-1.09.22-1.53.66-.44.42-.68.91-.71,1.47.09.02.17.03.26.03h.26c1.51,0,2.65-.46,3.44-1.37Z"/><path class="cls-10" d="m79.52,99.4c.03.89-.12,1.74-.47,2.55-.35.81-.83,1.52-1.45,2.13s-1.32,1.1-2.13,1.45c-.81.35-1.66.52-2.55.5-1.21,0-2.32-.29-3.34-.87-1.02-.58-1.81-1.39-2.39-2.45-.4-.72-.69-1.87-.87-3.44-.35-2.94-1.89-4.43-4.63-4.47-1.33-.02-2.44.42-3.34,1.31-.88.88-1.31,1.98-1.31,3.31s.45,2.38,1.34,3.29c.91.89,2.01,1.34,3.29,1.34.3,0,.48,0,.55-.03-.05.35-.11.69-.17,1.03s-.13.67-.2,1.03c-2.03.04-3.67-.56-4.92-1.79-1.25-1.24-1.87-2.87-1.87-4.86,0-1.86.64-3.42,1.92-4.68,1.28-1.28,2.86-1.92,4.73-1.92,2.16.04,3.79.77,4.89,2.21,1.07,1.17,1.63,2.65,1.68,4.42h-.03c.02.79.23,1.55.63,2.29.84,1.54,2.17,2.31,4,2.31.84,0,1.62-.2,2.34-.6,1.54-.86,2.31-2.2,2.31-4.02,0-.84-.2-1.62-.6-2.34-.89-1.54-2.24-2.31-4.05-2.31-.4,0-.77.04-1.1.11l.18-2.05c.3-.07.64-.1,1.03-.1.86-.02,1.69.16,2.48.54s1.5.88,2.12,1.5,1.1,1.34,1.45,2.14c.35.81.51,1.64.47,2.5Z"/><path class="cls-10" d="m85.22,95.67c0,.51-.18.94-.54,1.3s-.79.54-1.3.54-.95-.18-1.31-.54c-.37-.36-.55-.79-.55-1.3s.18-.94.55-1.3.81-.54,1.31-.54.94.18,1.3.54c.36.36.54.79.54,1.3Zm0,7.89c0,.51-.18.94-.54,1.3-.36.36-.79.54-1.3.54s-.95-.18-1.31-.54-.55-.79-.55-1.3.18-.94.55-1.3.81-.54,1.31-.54.94.18,1.3.54c.36.36.54.79.54,1.3Zm-1.34-7.89c0-.35-.17-.53-.5-.53-.35,0-.53.18-.53.53s.17.53.53.53.5-.17.5-.53Zm0,7.89c0-.35-.17-.53-.5-.53-.35,0-.53.18-.53.53s.17.53.53.53.5-.17.5-.53Z"/></g></g><g class="cls-1"><rect class="cls-2" x=".5" y="143.5" width="95" height="38"/><g><path class="cls-10" d="m42.25,173.05c0,1-.35,1.85-1.05,2.55s-1.57,1.08-2.55,1.08h-9.75c-.98,0-1.83-.36-2.55-1.08s-1.05-1.55-1.05-2.55v-19.19c0-1,.35-1.85,1.05-2.55.72-.72,1.57-1.08,2.55-1.08h9.75c.98,0,1.83.36,2.55,1.08.7.7,1.05,1.55,1.05,2.55v1.26h-1.97v-1.26c0-.46-.16-.85-.47-1.17s-.7-.49-1.16-.49h-9.75c-.46,0-.84.16-1.16.49s-.47.71-.47,1.17v19.19c0,.46.16.85.47,1.17s.7.49,1.16.49h9.75c.46,0,.84-.16,1.16-.49s.47-.71.47-1.17v-5.15h1.97v5.15Z"/><path class="cls-10" d="m42.23,163.45c-.04,2-.65,3.59-1.84,4.79s-2.78,1.79-4.76,1.79-3.58-.6-4.81-1.81c-1.21-1.21-1.81-2.8-1.81-4.78,0-2.24.99-4.09,2.97-5.55l1.45,1.45c-.12.09-.27.19-.45.32-.18.12-.38.28-.6.47-.91.91-1.37,2.02-1.37,3.31s.45,2.39,1.34,3.29c.89.89,1.99,1.34,3.29,1.34s2.38-.44,3.26-1.31c.88-.88,1.33-1.97,1.37-3.29.02-1.28-.42-2.37-1.31-3.29-.1-.1-.25-.23-.43-.37-.18-.14-.42-.3-.7-.47l1.34-1.53c.21.14.41.29.6.45.19.16.39.33.58.53,1.28,1.28,1.91,2.84,1.89,4.68Z"/><path class="cls-10" d="m67.54,173.05c0,.98-.36,1.83-1.08,2.55s-1.57,1.08-2.55,1.08h-16.17c-.98,0-1.83-.36-2.55-1.08s-1.05-1.55-1.05-2.55v-5.94h.08l-.1-.16,1.45-1.37c.98,1.67,2.35,2.5,4.1,2.5,1.31,0,2.41-.45,3.29-1.34.89-.89,1.34-2,1.34-3.31s-.45-2.39-1.34-3.29c-.89-.89-1.99-1.34-3.29-1.34-1.74,0-3.11.84-4.13,2.52l-1.39-1.55c1.44-1.96,3.28-2.94,5.52-2.94,1.96,0,3.55.61,4.76,1.84,1.23,1.21,1.84,2.8,1.84,4.76v.16c0,.68.21,1.4.63,2.16.84,1.54,2.17,2.31,4,2.31.84,0,1.62-.2,2.34-.6,1.54-.86,2.31-2.2,2.31-4.02,0-1.37-.42-2.49-1.26-3.37-.84-.88-1.95-1.32-3.31-1.32-.18,0-.34.01-.5.04-.16.03-.32.06-.5.09l.45-2.08c.09-.02.18-.03.29-.03h.32c.86-.02,1.69.16,2.48.53.8.37,1.5.86,2.1,1.47.6.61,1.08,1.32,1.43,2.13.35.81.51,1.64.47,2.5.04.89-.12,1.74-.47,2.55-.35.81-.83,1.52-1.45,2.13s-1.32,1.1-2.13,1.45c-.81.35-1.66.52-2.55.5-2.49,0-4.36-1.04-5.63-3.13-1.32,2.1-3.19,3.16-5.63,3.16-1.3,0-2.48-.37-3.55-1.1v4.1c0,.46.16.85.47,1.17s.7.49,1.16.49h16.17c.46,0,.85-.16,1.17-.49.32-.32.49-.71.49-1.17v-1.34h1.97v1.34Z"/><path class="cls-10" d="m65.1,153.17l-1.79,1.26c.02-.6-.21-1.14-.68-1.63-.51-.47-1.06-.71-1.66-.71-.65,0-1.21.23-1.67.68-.46.46-.7,1.01-.7,1.66s.23,1.23.68,1.68c.46.46,1.02.68,1.68.68h.29c.11,0,.2,0,.29.03l-.03,1.89c-.09.02-.17.03-.26.04s-.18.01-.29.01c-1.21,0-2.24-.42-3.08-1.26-.84-.84-1.26-1.87-1.26-3.08s.42-2.23,1.26-3.05c.84-.84,1.87-1.26,3.08-1.26.95,0,1.81.29,2.6.87.77.54,1.28,1.27,1.53,2.18Z"/></g></g><g class="cls-9"><rect class="cls-2" x=".5" y="207.5" width="95" height="38"/><g><path class="cls-10" d="m15.58,224.02l-1.19,1.33c-.89-1.44-2.07-2.16-3.54-2.16-1.11,0-2.05.38-2.82,1.15s-1.15,1.71-1.15,2.82c0,1.44.61,2.55,1.83,3.33.24-1.31.99-2.2,2.25-2.68.39-.15.79-.23,1.19-.23.8,0,1.56.28,2.3.83.54.41.81.91.81,1.51,0,.93-.62,1.7-1.85,2.3-.81.41-1.67.61-2.57.61-1.7,0-3.06-.52-4.1-1.55-1.04-1.05-1.56-2.43-1.56-4.12s.52-3.04,1.56-4.08,2.42-1.58,4.1-1.58c1.92,0,3.5.84,4.73,2.52Zm-1.92,5.9c-.41-.45-.9-.68-1.49-.68-.5,0-.93.19-1.31.56-.38.36-.58.78-.61,1.26.08.02.15.02.23.02h.23c1.29,0,2.28-.39,2.95-1.17Z"/><path class="cls-10" d="m38.13,227.11c0,1.04-.26,1.99-.79,2.87s-1.25,1.57-2.16,2.08c-.81.47-1.64.68-2.48.65l-.38-1.67c1.61.08,2.81-.58,3.61-1.96.35-.62.52-1.28.52-2.01,0-1.56-.66-2.71-1.98-3.45-.62-.35-1.28-.52-1.98-.52s-1.46.22-2.16.65c-.69.42-1.17.97-1.44,1.65-.08.21-.15.46-.21.74-.07.29-.12.61-.15.97v.04c0,1.73-.52,3.1-1.55,4.1-1.05,1.02-2.43,1.53-4.12,1.53s-3.05-.52-4.1-1.55c-1.04-1.05-1.55-2.42-1.55-4.1s.52-3.09,1.55-4.12c1.07-1.04,2.45-1.55,4.15-1.53,2.06.02,3.64.89,4.75,2.64,1.13-1.8,2.74-2.7,4.85-2.7.77-.01,1.49.13,2.19.43.69.3,1.3.72,1.83,1.25s.94,1.15,1.24,1.84c.3.69.44,1.41.41,2.16Zm-11.31.11c.01-1.14-.36-2.1-1.13-2.86-.74-.75-1.68-1.14-2.84-1.17-1.14-.01-2.1.36-2.86,1.13-.75.75-1.13,1.7-1.13,2.84s.38,2.05,1.15,2.82,1.71,1.15,2.82,1.15,2.07-.37,2.82-1.1c.75-.74,1.14-1.67,1.17-2.79Z"/><path class="cls-10" d="m47.8,227.11c0,1.02-.25,1.96-.74,2.82-1.07,1.85-2.74,2.81-5.03,2.88l-.27-1.71c.08.02.16.02.25.02h.25c1.43,0,2.54-.68,3.34-2.03.34-.62.52-1.28.52-2.01,0-1.56-.66-2.71-1.98-3.45-.62-.35-1.28-.52-1.98-.52-1.53,0-2.68.66-3.45,1.98-.3.54-.47.97-.52,1.28l-1.62-.25c.02-.68.33-1.43.95-2.28.56-.74,1.16-1.3,1.83-1.69.87-.5,1.81-.74,2.82-.74.77-.01,1.5.13,2.19.43.69.3,1.3.72,1.82,1.25s.94,1.15,1.24,1.84c.3.69.44,1.41.4,2.16Z"/><path class="cls-10" d="m60.17,230.13c-.25.39-.53.74-.83,1.04-1.1,1.1-2.43,1.65-4.01,1.65-1.7,0-3.07-.52-4.12-1.55-1.04-1.04-1.55-2.4-1.55-4.1s.52-3.09,1.55-4.12c1.07-1.04,2.45-1.55,4.15-1.53,2.06.03,3.64.88,4.73,2.55l-1.19,1.31c-.18-.36-.42-.69-.72-.99-.75-.75-1.69-1.14-2.82-1.17-1.14-.01-2.1.36-2.86,1.13-.75.75-1.13,1.7-1.13,2.84s.38,2.05,1.15,2.82c.77.77,1.7,1.15,2.82,1.15s2.05-.38,2.82-1.15c.21-.21.46-.56.77-1.06l1.26,1.22Z"/><path class="cls-10" d="m58.91,218.37l-1.53,1.08c.02-.51-.18-.98-.59-1.4-.44-.41-.91-.61-1.42-.61-.56,0-1.03.2-1.43.59-.4.39-.6.86-.6,1.42s.2,1.05.59,1.44.87.59,1.44.59h.25c.09,0,.17,0,.25.02l-.02,1.62c-.08.02-.15.03-.23.03-.07,0-.16.01-.25.01-1.04,0-1.92-.36-2.64-1.08-.72-.72-1.08-1.6-1.08-2.64s.36-1.91,1.08-2.61c.72-.72,1.6-1.08,2.64-1.08.81,0,1.55.25,2.23.74.66.47,1.1,1.09,1.31,1.87Z"/><path class="cls-10" d="m86.83,235.4c0,.86-.3,1.58-.9,2.19-.62.62-1.34.92-2.19.92h-17.98c-.84,0-1.57-.31-2.19-.92-.6-.6-.9-1.33-.9-2.19v-16.45c0-.86.3-1.58.9-2.19.62-.62,1.34-.92,2.19-.92h12.71v1.69h-12.71c-.39,0-.72.14-.99.42s-.41.61-.41,1v16.45c0,.39.13.73.41,1s.6.42.99.42h17.98c.39,0,.72-.14.99-.42s.41-.61.41-1v-4.42h1.69v4.42Z"/><path class="cls-10" d="m86.83,227.11c0,1.04-.26,1.99-.79,2.87-.53.88-1.25,1.57-2.16,2.08-.81.47-1.64.68-2.48.65l-.38-1.67c1.61.08,2.81-.58,3.61-1.96.35-.62.52-1.28.52-2.01,0-1.56-.66-2.71-1.98-3.45-.62-.35-1.28-.52-1.98-.52s-1.46.22-2.16.65c-.69.42-1.17.97-1.44,1.65-.24.59-.37,1.19-.38,1.83-.11,2.46-1.3,4.21-3.58,5.23l-.97-1.53c.9-.24,1.6-.7,2.11-1.39.5-.68.75-1.48.75-2.4,0-1.13-.38-2.07-1.15-2.82-.77-.77-1.71-1.15-2.84-1.15s-2.05.38-2.82,1.15c-.77.77-1.15,1.71-1.15,2.82,0,.86.25,1.63.75,2.31.5.68,1.16,1.16,1.97,1.43l-.88,1.51c-2.36-1.1-3.54-2.85-3.54-5.25,0-1.68.52-3.04,1.55-4.08,1.05-1.05,2.42-1.58,4.1-1.58,2.12,0,3.73.89,4.82,2.66,1.08-1.82,2.7-2.73,4.85-2.73.77-.01,1.49.13,2.19.43.69.3,1.3.72,1.83,1.25.53.53.94,1.15,1.24,1.84s.44,1.41.41,2.16Z"/><path class="cls-10" d="m84.92,219.45c0,1.02-.35,1.9-1.06,2.64-.72.72-1.6,1.08-2.64,1.08s-1.92-.36-2.64-1.08c-.72-.72-1.08-1.6-1.08-2.64s.36-1.91,1.08-2.61c.72-.72,1.6-1.08,2.64-1.08s1.89.36,2.61,1.08c.72.72,1.08,1.59,1.08,2.61Zm-1.69.27v-.27c0-.56-.19-1.03-.59-1.42-.39-.39-.86-.59-1.42-.59s-1.03.2-1.43.59c-.4.39-.6.86-.6,1.42,0,.12,0,.21.02.27.57-.57,1.24-.86,2.01-.86s1.43.29,2,.86Zm-.68,1.26c-.27-.57-.71-.86-1.33-.86s-1.07.28-1.35.83c.39.35.84.52,1.35.52s.95-.17,1.33-.5Z"/><path class="cls-10" d="m91.77,223.93c0,.44-.15.81-.46,1.12s-.68.46-1.12.46-.81-.15-1.13-.46-.47-.68-.47-1.12.16-.81.47-1.12.69-.46,1.13-.46.81.15,1.12.46.46.68.46,1.12Zm0,6.76c0,.44-.15.81-.46,1.12-.31.31-.68.46-1.12.46s-.81-.15-1.13-.46c-.32-.31-.47-.68-.47-1.12s.16-.81.47-1.12c.32-.31.69-.46,1.13-.46s.81.15,1.12.46c.31.31.46.68.46,1.12Zm-1.15-6.76c0-.3-.14-.45-.43-.45-.3,0-.45.15-.45.45s.15.45.45.45c.29,0,.43-.15.43-.45Zm0,6.76c0-.3-.14-.45-.43-.45-.3,0-.45.15-.45.45s.15.45.45.45c.29,0,.43-.15.43-.45Z"/></g></g><g class="cls-6"><rect class="cls-2" x=".5" y="271.5" width="95" height="38"/><g><path class="cls-10" d="m20.31,287.56l-1.39,1.55c-1.03-1.68-2.41-2.52-4.13-2.52-1.3,0-2.39.45-3.29,1.34s-1.34,1.99-1.34,3.29c0,1.68.71,2.98,2.13,3.89.28-1.52,1.16-2.57,2.63-3.13.46-.18.92-.26,1.39-.26.93,0,1.82.32,2.68.97.63.47.95,1.06.95,1.76,0,1.09-.72,1.98-2.16,2.68-.95.47-1.95.71-3,.71-1.98,0-3.58-.6-4.79-1.81-1.21-1.23-1.81-2.83-1.81-4.81s.6-3.55,1.81-4.76,2.82-1.84,4.79-1.84c2.24,0,4.08.98,5.52,2.94Zm-2.23,6.89c-.47-.53-1.05-.79-1.73-.79-.58,0-1.09.22-1.52.66-.44.42-.68.91-.71,1.47.09.02.17.03.26.03h.26c1.51,0,2.66-.46,3.44-1.37Z"/><path class="cls-10" d="m46.63,291.16c0,1.21-.31,2.33-.92,3.35-.61,1.02-1.46,1.84-2.52,2.43-.95.54-1.91.8-2.89.76l-.45-1.95c1.88.09,3.28-.67,4.21-2.29.4-.72.6-1.5.6-2.34,0-1.82-.77-3.16-2.31-4.02-.72-.4-1.49-.6-2.31-.6s-1.7.25-2.52.76c-.81.49-1.37,1.13-1.68,1.92-.09.25-.17.54-.25.87-.08.33-.14.71-.17,1.13v.05c0,2.02-.6,3.61-1.81,4.79-1.23,1.19-2.83,1.79-4.81,1.79s-3.56-.6-4.79-1.81c-1.21-1.23-1.81-2.82-1.81-4.79s.6-3.6,1.81-4.81c1.24-1.21,2.86-1.81,4.84-1.79,2.4.02,4.25,1.04,5.55,3.08,1.31-2.1,3.2-3.15,5.65-3.15.89-.02,1.74.15,2.55.5s1.52.84,2.13,1.46c.61.62,1.1,1.34,1.45,2.14.35.81.51,1.65.47,2.52Zm-13.2.13c.02-1.33-.42-2.45-1.31-3.34-.86-.88-1.96-1.33-3.31-1.37-1.33-.02-2.45.42-3.34,1.31-.88.88-1.31,1.98-1.31,3.31s.45,2.39,1.34,3.29,1.99,1.34,3.29,1.34,2.41-.43,3.29-1.29c.88-.86,1.33-1.95,1.37-3.26Z"/><path class="cls-10" d="m57.91,291.16c0,1.19-.29,2.29-.87,3.29-1.25,2.16-3.2,3.28-5.86,3.37l-.32-2c.09.02.18.03.29.03h.29c1.67,0,2.96-.79,3.89-2.37.4-.72.6-1.5.6-2.34,0-1.82-.77-3.16-2.31-4.02-.72-.4-1.49-.6-2.31-.6-1.79,0-3.13.77-4.02,2.31-.35.63-.55,1.13-.61,1.5l-1.89-.29c.02-.79.39-1.67,1.1-2.66.65-.86,1.36-1.52,2.13-1.97,1.02-.58,2.11-.87,3.29-.87.89-.02,1.74.15,2.55.5.81.35,1.52.84,2.13,1.46.61.62,1.09,1.34,1.45,2.14.35.81.51,1.65.47,2.52Z"/><path class="cls-10" d="m72.34,294.68c-.3.46-.62.86-.97,1.21-1.28,1.28-2.84,1.92-4.68,1.92-1.98,0-3.58-.6-4.81-1.81-1.21-1.21-1.81-2.8-1.81-4.79s.6-3.6,1.81-4.81c1.24-1.21,2.86-1.81,4.84-1.79,2.4.04,4.24,1.03,5.52,2.97l-1.39,1.52c-.21-.42-.49-.81-.84-1.16-.88-.88-1.97-1.33-3.29-1.37-1.33-.02-2.44.42-3.34,1.31-.88.88-1.31,1.98-1.31,3.31s.45,2.39,1.34,3.29c.89.89,1.99,1.34,3.29,1.34s2.39-.45,3.29-1.34c.25-.25.54-.66.89-1.24l1.47,1.42Z"/><path class="cls-10" d="m70.87,280.96l-1.79,1.26c.02-.6-.21-1.14-.68-1.63-.51-.47-1.06-.71-1.66-.71-.65,0-1.21.23-1.67.68-.46.46-.7,1.01-.7,1.66s.23,1.23.68,1.68c.46.46,1.02.68,1.68.68h.29c.11,0,.2,0,.29.03l-.03,1.89c-.09.02-.17.03-.26.04s-.18.01-.29.01c-1.21,0-2.23-.42-3.08-1.26-.84-.84-1.26-1.87-1.26-3.08s.42-2.23,1.26-3.05c.84-.84,1.87-1.26,3.08-1.26.95,0,1.81.29,2.6.87.77.54,1.28,1.27,1.53,2.18Z"/><path class="cls-10" d="m87.43,294.68c-.3.46-.62.86-.97,1.21-1.28,1.28-2.84,1.92-4.68,1.92-1.98,0-3.58-.6-4.81-1.81-1.21-1.21-1.81-2.8-1.81-4.79s.6-3.6,1.81-4.81c1.24-1.21,2.86-1.81,4.84-1.79,2.4.04,4.24,1.03,5.52,2.97l-1.39,1.52c-.21-.42-.49-.81-.84-1.16-.88-.88-1.97-1.33-3.29-1.37-1.33-.02-2.44.42-3.34,1.31-.88.88-1.31,1.98-1.31,3.31s.45,2.39,1.34,3.29c.89.89,1.99,1.34,3.29,1.34s2.39-.45,3.29-1.34c.25-.25.54-.66.89-1.24l1.47,1.42Z"/><path class="cls-10" d="m80.94,304.41h-1.97v-6.91h1.97v6.91Zm4.97,0h-.58c-1.7,0-2.55-.85-2.55-2.55v-4.36h1.97v4.36c0,.23.03.4.08.53.11.03.27.05.5.05h.58v1.97Z"/></g></g><g class="cls-11"><rect class="cls-2" x=".5" y="335.5" width="95" height="38"/><g><path class="cls-10" d="m29.34,354.24c-.04,2-.65,3.59-1.84,4.79-1.19,1.19-2.78,1.79-4.76,1.79s-3.58-.6-4.81-1.81c-1.21-1.21-1.81-2.8-1.81-4.79,0-2.24.99-4.09,2.97-5.55l1.45,1.45c-.12.09-.27.19-.45.32-.18.12-.38.28-.6.47-.91.91-1.37,2.02-1.37,3.31s.45,2.39,1.34,3.29c.89.89,1.99,1.34,3.29,1.34s2.38-.44,3.26-1.32,1.33-1.97,1.37-3.29c.02-1.28-.42-2.38-1.31-3.29-.1-.1-.25-.23-.43-.37s-.42-.3-.7-.47l1.34-1.52c.21.14.41.29.6.45.19.16.39.33.58.53,1.28,1.28,1.91,2.84,1.89,4.68Z"/><path class="cls-10" d="m43.43,354.21c0,1.98-.61,3.58-1.84,4.79-1.21,1.21-2.8,1.81-4.78,1.81-1.84,0-3.4-.64-4.68-1.92-.33-.33-.5-.78-.5-1.34,0-.09.02-.2.05-.34.25-1.38,1.27-2.22,3.08-2.5.07-.02.21-.03.42-.03,2.09,0,3.47,1.14,4.15,3.42.3-.21.55-.42.76-.63.89-.89,1.34-1.98,1.34-3.26s-.45-2.44-1.34-3.31c-.88-.89-1.98-1.33-3.31-1.31-1.31.04-2.41.49-3.29,1.37-.35.35-.63.74-.84,1.16l-1.39-1.53c1.28-1.95,3.12-2.94,5.52-2.97,2-.02,3.6.58,4.81,1.79,1.23,1.21,1.84,2.81,1.84,4.81Zm-5.89,4.58c-.25-1.19-.86-1.87-1.84-2.03-.12-.02-.23-.03-.32-.04-.09,0-.17-.01-.24-.01-.74,0-1.27.27-1.6.82.91.88,2,1.32,3.26,1.32.12,0,.25,0,.37-.01.12,0,.25-.02.37-.04Z"/><path class="cls-10" d="m38.99,367.41h-.58c-1.7,0-2.55-.85-2.55-2.55v-4.31h1.97v4.31c0,.23.03.4.08.53.11.03.27.05.5.05h.58v1.97Z"/><path class="cls-10" d="m69.72,354.16c0,1.21-.31,2.33-.92,3.35s-1.46,1.84-2.52,2.43c-.95.54-1.91.8-2.89.76l-.45-1.95c1.88.09,3.28-.67,4.21-2.29.4-.72.6-1.5.6-2.34,0-1.82-.77-3.16-2.31-4.02-.72-.4-1.49-.6-2.31-.6s-1.7.25-2.52.76c-.81.49-1.37,1.13-1.68,1.92-.28.68-.43,1.39-.45,2.13-.12,2.88-1.52,4.91-4.18,6.1l-1.13-1.79c1.05-.28,1.87-.82,2.46-1.62.59-.8.88-1.73.88-2.8,0-1.31-.45-2.41-1.34-3.29-.89-.89-2-1.34-3.31-1.34s-2.39.45-3.29,1.34c-.89.89-1.34,1.99-1.34,3.29,0,1,.29,1.9.88,2.69.59.8,1.35,1.35,2.3,1.67l-1.03,1.76c-2.75-1.28-4.13-3.32-4.13-6.13,0-1.96.6-3.55,1.81-4.76,1.23-1.23,2.82-1.84,4.79-1.84,2.47,0,4.35,1.03,5.63,3.1,1.26-2.12,3.15-3.18,5.65-3.18.89-.02,1.74.15,2.55.5.81.35,1.52.84,2.13,1.46.61.62,1.1,1.34,1.45,2.14.35.81.51,1.65.47,2.52Z"/><path class="cls-10" d="m65.2,365.1c0,.96-.22,1.74-.66,2.34l-2.1-.58c.53-.42.79-1.01.79-1.76,0-.67-.22-1.23-.67-1.68-.45-.46-1-.68-1.67-.68-.63,0-1.18.21-1.64.62-.46.41-.7.92-.7,1.54v.21c0,.95-.23,1.73-.68,2.34l-2.1-.58c.54-.42.82-1.01.82-1.76h-.03l.03-.16c-.04-.63-.28-1.16-.74-1.58-.46-.42-1-.63-1.63-.63-.67,0-1.22.23-1.67.68-.45.46-.67,1.02-.67,1.68s.19,1.24.58,1.68l-1.89.6c-.47-.81-.69-1.57-.66-2.29.05-1.32.46-2.37,1.21-3.16s1.79-1.18,3.1-1.18,2.46.52,3.34,1.55c.82-1.03,1.94-1.55,3.34-1.55,1.21,0,2.23.42,3.08,1.26.82.86,1.24,1.88,1.24,3.08Z"/><path class="cls-10" d="m73.61,367.41h-1.97v-19.82h1.97v19.82Zm4.97,0h-.55c-1.72,0-2.58-.85-2.58-2.55v-17.27h1.97v17.27c0,.23.03.4.08.53.1.03.28.05.53.05h.55v1.97Z"/></g></g><g class="cls-3"><rect class="cls-2" x=".5" y="399.5" width="95" height="38"/><g><path class="cls-10" d="m26.34,418.24c-.04,2-.65,3.59-1.84,4.79-1.19,1.19-2.78,1.79-4.76,1.79s-3.58-.6-4.81-1.81c-1.21-1.21-1.81-2.8-1.81-4.79,0-2.24.99-4.09,2.97-5.55l1.45,1.45c-.12.09-.27.19-.45.32-.18.12-.38.28-.6.47-.91.91-1.37,2.02-1.37,3.31,0,.84.2,1.61.6,2.31,1.02-1.26,2.3-1.88,3.86-1.84,1.56.04,2.88.76,3.97,2.18.51-.75.78-1.63.82-2.63.02-1.28-.42-2.38-1.31-3.29-.1-.1-.25-.23-.43-.37s-.42-.3-.7-.47l1.34-1.52c.21.14.41.29.6.45.19.16.39.33.58.53,1.28,1.28,1.91,2.84,1.89,4.68Zm-4.26,4c-.61-1.16-1.44-1.67-2.47-1.55-.02-.02-.09-.03-.21-.03-.96,0-1.74.45-2.31,1.34.77.56,1.66.84,2.66.84.86,0,1.64-.2,2.34-.61Z"/><path class="cls-10" d="m21.95,431.41h-.58c-1.7,0-2.55-.85-2.55-2.55v-4.31h1.97v4.31c0,.23.03.4.08.53.11.03.27.05.5.05h.58v1.97Z"/><path class="cls-10" d="m24.15,409.22c0,1.19-.41,2.22-1.24,3.08-.84.84-1.87,1.26-3.08,1.26s-2.23-.42-3.08-1.26c-.84-.84-1.26-1.87-1.26-3.08s.42-2.23,1.26-3.05c.84-.84,1.87-1.26,3.08-1.26s2.21.42,3.05,1.26,1.26,1.86,1.26,3.05Zm-1.97,0c0-.65-.23-1.2-.68-1.66-.46-.46-1.01-.68-1.66-.68s-1.21.23-1.67.68c-.46.46-.7,1.01-.7,1.66s.23,1.23.68,1.68c.46.46,1.02.68,1.68.68s1.22-.23,1.67-.68c.45-.46.67-1.02.67-1.68Z"/><path class="cls-10" d="m32.15,414.45c0,.51-.18.94-.54,1.3s-.79.54-1.3.54-.95-.18-1.31-.54-.55-.79-.55-1.3.18-.94.55-1.3c.37-.36.81-.54,1.31-.54s.94.18,1.3.54c.36.36.54.79.54,1.3Zm0,7.89c0,.51-.18.94-.54,1.3-.36.36-.79.54-1.3.54s-.95-.18-1.31-.54c-.37-.36-.55-.79-.55-1.3s.18-.94.55-1.3c.37-.36.81-.54,1.31-.54s.94.18,1.3.54c.36.36.54.79.54,1.3Zm-1.34-7.89c0-.35-.17-.53-.5-.53-.35,0-.53.17-.53.53s.18.53.53.53.5-.18.5-.53Zm0,7.89c0-.35-.17-.53-.5-.53-.35,0-.53.17-.53.53s.18.53.53.53.5-.17.5-.53Z"/><path class="cls-10" d="m58.41,418.16c0,1.21-.31,2.33-.92,3.35s-1.46,1.84-2.52,2.43c-.95.54-1.91.8-2.89.76l-.45-1.95c1.88.09,3.28-.67,4.21-2.29.4-.72.61-1.5.61-2.34,0-1.82-.77-3.16-2.31-4.02-.72-.4-1.49-.6-2.31-.6s-1.7.25-2.52.76c-.81.49-1.37,1.13-1.68,1.92-.28.68-.43,1.39-.45,2.13-.12,2.88-1.52,4.91-4.18,6.1l-1.13-1.79c1.05-.28,1.87-.82,2.46-1.62.59-.8.88-1.73.88-2.8,0-1.31-.45-2.41-1.34-3.29-.89-.89-2-1.34-3.31-1.34s-2.39.45-3.29,1.34c-.89.89-1.34,1.99-1.34,3.29,0,1,.29,1.9.88,2.69.59.8,1.35,1.35,2.3,1.67l-1.03,1.76c-2.75-1.28-4.13-3.32-4.13-6.13,0-1.96.6-3.55,1.81-4.76,1.23-1.23,2.82-1.84,4.78-1.84,2.47,0,4.35,1.03,5.63,3.1,1.26-2.12,3.15-3.18,5.65-3.18.89-.02,1.74.15,2.55.5.8.35,1.52.84,2.13,1.46.61.62,1.1,1.34,1.45,2.14.35.81.51,1.65.47,2.52Z"/><path class="cls-10" d="m54.02,431.41h-.58c-1.7,0-2.55-.85-2.55-2.55v-4.31h1.97v4.31c0,.23.03.4.08.53.1.03.27.05.5.05h.58v1.97Z"/><path class="cls-10" d="m84.75,418.16c0,1.21-.31,2.33-.92,3.35s-1.46,1.84-2.52,2.43c-.95.54-1.91.8-2.89.76l-.45-1.95c1.88.09,3.28-.67,4.21-2.29.4-.72.6-1.5.6-2.34,0-1.82-.77-3.16-2.31-4.02-.72-.4-1.49-.6-2.31-.6s-1.7.25-2.52.76c-.81.49-1.37,1.13-1.68,1.92-.09.25-.17.54-.25.87-.08.33-.14.71-.17,1.13v.05c0,2.02-.6,3.61-1.81,4.79-1.23,1.19-2.83,1.79-4.81,1.79s-3.56-.6-4.79-1.81c-1.21-1.23-1.81-2.82-1.81-4.79s.6-3.6,1.81-4.81c1.24-1.21,2.86-1.8,4.84-1.79,2.4.02,4.25,1.04,5.55,3.08,1.31-2.1,3.2-3.16,5.65-3.16.89-.02,1.74.15,2.55.5.81.35,1.52.84,2.13,1.46.61.62,1.1,1.34,1.45,2.14.35.81.51,1.65.47,2.52Zm-13.2.13c.02-1.33-.42-2.45-1.31-3.34-.86-.88-1.96-1.33-3.31-1.37-1.33-.02-2.44.42-3.34,1.31-.88.88-1.31,1.98-1.31,3.31s.45,2.39,1.34,3.29,1.99,1.34,3.29,1.34,2.41-.43,3.29-1.29c.88-.86,1.33-1.95,1.37-3.26Z"/><path class="cls-10" d="m82.34,407.96l-1.79,1.26c.02-.6-.21-1.14-.68-1.63-.51-.47-1.06-.71-1.66-.71-.65,0-1.21.23-1.67.68-.46.46-.7,1.01-.7,1.66s.23,1.23.68,1.68c.46.46,1.02.68,1.68.68h.29c.11,0,.2,0,.29.03l-.03,1.89c-.09.02-.17.03-.26.04-.09,0-.18.01-.29.01-1.21,0-2.23-.42-3.08-1.26-.84-.84-1.26-1.87-1.26-3.08s.42-2.23,1.26-3.05c.84-.84,1.87-1.26,3.08-1.26.95,0,1.81.29,2.6.87.77.54,1.28,1.27,1.53,2.18Z"/></g></g><g class="cls-4"><rect class="cls-2" x=".5" y="463.5" width="95" height="38"/><g><path class="cls-10" d="m36.34,483.24c-.04,2-.65,3.59-1.84,4.79-1.19,1.19-2.78,1.79-4.76,1.79s-3.58-.6-4.81-1.81c-1.21-1.21-1.81-2.8-1.81-4.79,0-2.24.99-4.09,2.97-5.55l1.45,1.45c-.12.09-.27.19-.45.32-.18.12-.38.28-.6.47-.91.91-1.37,2.02-1.37,3.31s.45,2.39,1.34,3.29c.89.89,1.99,1.34,3.29,1.34s2.38-.44,3.26-1.32,1.33-1.97,1.37-3.29c.02-1.28-.42-2.38-1.31-3.29-.1-.1-.25-.23-.43-.37s-.42-.3-.7-.47l1.34-1.52c.21.14.41.29.6.45.19.16.39.33.58.53,1.28,1.28,1.91,2.84,1.89,4.68Z"/><path class="cls-10" d="m31.95,496.41h-.58c-1.7,0-2.55-.85-2.55-2.55v-4.31h1.97v4.31c0,.23.03.4.08.53.11.03.27.05.5.05h.58v1.97Z"/><path class="cls-10" d="m61.68,483.19c.03.89-.12,1.74-.47,2.55s-.83,1.52-1.45,2.13-1.32,1.1-2.13,1.45c-.81.35-1.66.52-2.55.5-2.49,0-4.36-1.04-5.63-3.13-1.32,2.1-3.19,3.16-5.63,3.16s-4.16-1.04-5.55-3.1l1.45-1.37c.98,1.67,2.35,2.5,4.1,2.5,1.31,0,2.41-.45,3.29-1.34.89-.89,1.34-2,1.34-3.31s-.45-2.39-1.34-3.29c-.89-.89-1.99-1.34-3.29-1.34-1.74,0-3.11.84-4.13,2.52l-1.39-1.55c1.44-1.96,3.28-2.94,5.52-2.94,1.96,0,3.55.61,4.76,1.84,1.23,1.21,1.84,2.8,1.84,4.76v.16c0,.68.21,1.4.63,2.16.84,1.54,2.17,2.31,4,2.31.84,0,1.62-.2,2.34-.61,1.54-.86,2.31-2.2,2.31-4.02,0-1.37-.42-2.49-1.26-3.37s-1.95-1.31-3.31-1.31c-.18,0-.34.01-.5.04-.16.03-.32.06-.5.09l.45-2.08c.09-.02.18-.03.29-.03h.32c.86-.02,1.69.16,2.48.53.8.37,1.5.86,2.1,1.47s1.08,1.32,1.43,2.13c.35.81.51,1.64.47,2.5Z"/><path class="cls-10" d="m59.45,474.22c0,1.19-.41,2.22-1.24,3.08-.84.84-1.87,1.26-3.08,1.26s-2.23-.42-3.08-1.26c-.84-.84-1.26-1.87-1.26-3.08s.42-2.23,1.26-3.05c.84-.84,1.87-1.26,3.08-1.26s2.21.42,3.05,1.26,1.26,1.86,1.26,3.05Zm-1.97,0c0-.65-.23-1.2-.68-1.66-.46-.46-1.01-.68-1.66-.68s-1.21.23-1.67.68c-.46.46-.7,1.01-.7,1.66s.23,1.23.68,1.68c.46.46,1.02.68,1.68.68s1.22-.23,1.67-.68c.45-.46.67-1.02.67-1.68Z"/><path class="cls-10" d="m76.77,483.24c-.04,2-.65,3.59-1.84,4.79-1.19,1.19-2.78,1.79-4.76,1.79s-3.58-.6-4.81-1.81c-1.21-1.21-1.81-2.8-1.81-4.79,0-2.24.99-4.09,2.97-5.55l1.45,1.45c-.12.09-.27.19-.45.32-.17.12-.38.28-.6.47-.91.91-1.37,2.02-1.37,3.31,0,.84.2,1.61.6,2.31,1.02-1.26,2.3-1.88,3.87-1.84,1.56.04,2.88.76,3.97,2.18.51-.75.78-1.63.82-2.63.02-1.28-.42-2.38-1.31-3.29-.11-.1-.25-.23-.43-.37-.18-.14-.42-.3-.7-.47l1.34-1.52c.21.14.41.29.6.45.19.16.39.33.58.53,1.28,1.28,1.91,2.84,1.89,4.68Zm-4.26,4c-.61-1.16-1.44-1.67-2.47-1.55-.02-.02-.09-.03-.21-.03-.96,0-1.74.45-2.31,1.34.77.56,1.66.84,2.66.84.86,0,1.64-.2,2.34-.61Z"/><path class="cls-10" d="m74.35,472.96l-1.79,1.26c.02-.6-.21-1.14-.68-1.63-.51-.47-1.06-.71-1.66-.71-.65,0-1.21.23-1.67.68-.46.46-.7,1.01-.7,1.66s.23,1.23.68,1.68c.46.46,1.02.68,1.68.68h.29c.11,0,.2,0,.29.03l-.03,1.89c-.09.02-.17.03-.26.04-.09,0-.18.01-.29.01-1.21,0-2.23-.42-3.08-1.26-.84-.84-1.26-1.87-1.26-3.08s.42-2.23,1.26-3.05c.84-.84,1.87-1.26,3.08-1.26.95,0,1.81.29,2.6.87.77.54,1.28,1.27,1.53,2.18Z"/></g></g></svg>